<?xml version="1.0" standalone="no"?>
<!DOCTYPE svg PUBLIC "-//W3C//DTD SVG 1.1//EN" "http://www.w3.org/Graphics/SVG/1.1/DTD/svg11.dtd" >
<svg xmlns="http://www.w3.org/2000/svg">
<metadata></metadata>
<defs>
<font id="freehand575_btregular" horiz-adv-x="1024" >
<font-face units-per-em="2048" ascent="1556" descent="-492" />
<missing-glyph horiz-adv-x="508" />
<glyph horiz-adv-x="2048" />
<glyph horiz-adv-x="2048" />
<glyph unicode="&#xd;" horiz-adv-x="508" />
<glyph unicode=" "  horiz-adv-x="508" />
<glyph unicode="&#x09;" horiz-adv-x="508" />
<glyph unicode="&#xa0;" horiz-adv-x="508" />
<glyph unicode="!" horiz-adv-x="522" d="M-2 45q0 53 48 99t93 46q29 0 44.5 -21t15.5 -60q0 -51 -32.5 -89t-76.5 -38t-68 16.5t-24 46.5zM119 297q0 76 64.5 338.5t166.5 535.5l4 10q60 158 127 158q33 0 56.5 -20.5t23.5 -42.5q0 -7 -5 -17.5t-19 -31.5q-38 -104 -118 -343.5t-177 -540.5q-2 -45 -16.5 -61 t-51.5 -16q-28 0 -41.5 7.5t-13.5 23.5z" />
<glyph unicode="&#x22;" horiz-adv-x="590" d="M94 881v553h117v-553h-117zM377 881v553h119v-553h-119z" />
<glyph unicode="#" horiz-adv-x="1575" d="M104 467l43 123h320l96 272h-342l43 123h344l168 471h146l-166 -471h260l168 471h143l-164 -471h307l-43 -123h-311l-94 -272h330l-43 -123h-332l-166 -469h-145l168 469h-265l-168 -469h-143l166 469h-320zM614 590h263l96 272h-264z" />
<glyph unicode="$" horiz-adv-x="1014" d="M31 266q0 27 19.5 48.5t43.5 21.5q20 0 36 -40q7 -17 11 -26q43 -87 121.5 -132.5t186.5 -45.5q51 0 83.5 21t42.5 61q-9 40 -42 82.5t-121 120.5q-93 82 -124.5 138.5t-31.5 123.5q0 80 56.5 204t148.5 236q54 65 110.5 107t106.5 55q48 207 89 296t87 89q20 0 30.5 -12 t10.5 -35q0 -15 -11 -50q-1 -4 -1 -5q-9 -54 -35 -128t-69 -172q7 -4 30 -33t61 -83q83 -50 112.5 -82.5t29.5 -69.5q0 -18 -23.5 -33.5t-46.5 -15.5q-24 0 -44.5 22t-53.5 89l-3 5q-32 64 -79 64q-39 0 -83.5 -27t-90.5 -79q-78 -86 -124 -188.5t-46 -184.5q0 -74 42 -145 t130 -146q15 -12 44 -35q95 -75 95 -130q0 -70 -79.5 -121t-194.5 -51q-1 0 -4 -1q-12 -1 -25 -2q-40 -97 -81 -231q-41 -133 -79 -133q-26 0 -44.5 20t-18.5 50q0 33 23.5 108t76.5 209q-110 35 -191 120t-81 146z" />
<glyph unicode="%" horiz-adv-x="977" d="M-39 76q0 22 114 148l7 7l659 734l21 22q233 260 317 260q15 0 25 -13t10 -32q0 -24 -61 -74.5t-99 -93.5l-462 -516q-137 -152 -294 -338t-175 -186q-25 0 -43.5 24.5t-18.5 57.5zM184 862q0 48 25.5 120.5t69.5 143.5q24 42 66 68.5t81 26.5q12 0 26 -5t30 -16 q55 -1 84.5 -34.5t29.5 -96.5q0 -130 -82.5 -239t-196.5 -109q-65 0 -99 36t-34 105zM313 850q0 -28 11 -43.5t30 -15.5q41 0 90.5 88.5t49.5 173.5q0 26 -11 43.5t-26 17.5q-35 0 -89.5 -96t-54.5 -168zM371 76q0 64 35.5 162t85.5 161q15 20 33.5 30t64.5 17q20 11 40 16 t38 5q54 0 90.5 -53t36.5 -135q0 -130 -70.5 -220t-167.5 -90q-114 0 -150 24t-36 83zM508 59q0 -10 10 -18t23 -8q46 0 96.5 79t50.5 154q0 42 -11 64t-32 22q-34 0 -85.5 -103t-51.5 -190z" />
<glyph unicode="&#x26;" horiz-adv-x="1063" d="M-43 199q0 129 408 415l9 6q-9 43 -13.5 86.5t-4.5 90.5q0 134 61 211t163 77q8 0 18.5 -2.5t24.5 -7.5q46 -6 78 -45.5t32 -91.5q0 -64 -54 -147.5t-163 -188.5q31 -130 65 -222.5t76 -158.5q46 37 70.5 72.5t24.5 66.5q0 2 -1 7.5t-2 7.5q-19 -3 -33 -4.5t-20 -1.5 q-29 0 -58.5 31t-29.5 55q0 29 97 52t235 23q46 0 63 -11.5t17 -43.5q0 -46 -81 -57q-78 -11 -138 -27q17 -14 26 -28t9 -29q0 -43 -31 -96t-84 -103q25 -27 61.5 -55.5t36.5 -40.5q0 -9 -25 -21t-46 -12q-18 0 -40.5 10.5t-76.5 49.5q-80 -43 -160.5 -63.5t-163.5 -20.5 q-152 0 -251 62.5t-99 154.5zM133 182q0 -49 38.5 -74.5t113.5 -25.5q67 0 137 18t133 52q-48 77 -87.5 166t-72.5 192l-8 -8q-254 -241 -254 -320zM498 748q0 -6 1 -16.5t1 -14.5q59 75 94 147.5t35 116.5q0 13 -5 22t-12 9q-13 0 -32 -21t-35 -55q-24 -48 -35.5 -95.5 t-11.5 -92.5z" />
<glyph unicode="'" horiz-adv-x="305" d="M94 881v553h117v-553h-117z" />
<glyph unicode="(" horiz-adv-x="606" d="M82 184q0 196 79 431.5t212 428.5q76 112 165 171t181 59q43 0 75.5 -16t32.5 -35q0 -27 -53 -31.5t-88 -20.5q-83 -34 -155 -122.5t-136 -235.5q-83 -193 -126.5 -363.5t-43.5 -304.5q0 -123 29 -229.5t88 -202.5q-2 -10 -12 -17t-21 -7q-70 0 -148.5 151t-78.5 344z " />
<glyph unicode=")" horiz-adv-x="606" d="M-254 -260q0 27 53 31.5t88 19.5q84 35 155.5 123.5t135.5 235.5q84 192 127 361.5t43 305.5q0 125 -28 231.5t-86 200.5q1 10 10.5 17.5t19.5 7.5q71 0 150.5 -151t79.5 -345q0 -195 -79.5 -428.5t-213.5 -429.5q-77 -112 -166 -171.5t-180 -59.5q-44 0 -76.5 15.5 t-32.5 35.5z" />
<glyph unicode="*" horiz-adv-x="508" d="M211 989q0 24 100 92q28 19 45 31q-44 24 -65 41t-21 31q0 13 9 21.5t22 8.5q14 0 40 -11.5t58 -32.5q5 13 13 37q32 93 67 93q13 0 21 -8.5t8 -21.5q0 -9 -18 -51q-10 -23 -15 -35q50 30 69.5 38.5t33.5 8.5q9 0 16.5 -2.5t7.5 -5.5q0 -10 -70 -58q-40 -27 -65 -45 q27 -20 58.5 -39t31.5 -22q0 -9 -12 -26t-23 -17q-6 0 -51 29q-25 16 -41 26q-9 -26 -20 -67q-21 -74 -50 -74q-8 0 -14 5t-6 11q0 15 6 41.5t19 65.5q-59 -40 -92.5 -60t-43.5 -20q-7 0 -12.5 5t-5.5 11z" />
<glyph unicode="+" horiz-adv-x="1706" d="M254 553v117h541v551h118v-551h539v-117h-539v-553h-118v553h-541z" />
<glyph unicode="," horiz-adv-x="508" d="M-23 -150q0 23 83 172l1 2q4 7 11 20q52 97 84 97q17 0 33 -16t16 -31q0 -14 -54 -93q-48 -71 -79 -119q-3 -5 -8 -13q-34 -55 -58 -55q-13 0 -21 10t-8 26z" />
<glyph unicode="-" horiz-adv-x="702" d="M84 332q37 14 118.5 22t184.5 8q92 0 125 -19t33 -67q-1 -19 -8 -26t-27 -10q-101 -12 -198 -18.5t-144 -6.5q-59 0 -71.5 17t-12.5 100z" />
<glyph unicode="." horiz-adv-x="508" d="M43 43q0 52 41.5 90.5t93.5 38.5q29 0 48.5 -17.5t19.5 -43.5q0 -45 -41.5 -93.5t-71.5 -48.5q-45 0 -67.5 18.5t-22.5 55.5z" />
<glyph unicode="/" horiz-adv-x="606" d="M-45 -123q0 40 116 303.5t322 689.5l6 12q204 421 277 421q22 0 34.5 -14t12.5 -40q0 -13 -3.5 -20.5t-12.5 -14.5q-231 -437 -443 -920.5t-241 -483.5q-27 0 -47.5 19t-20.5 48z" />
<glyph unicode="0" horiz-adv-x="1014" d="M14 324q0 80 31.5 191t89.5 235q57 118 121.5 215.5t130.5 164.5q71 73 131.5 104.5t126.5 31.5q62 0 134.5 -27.5t131.5 -73.5q43 -33 66.5 -103t23.5 -165q0 -140 -49.5 -301t-136.5 -301q-101 -164 -222.5 -251t-250.5 -87q-137 0 -232.5 105t-95.5 262zM158 281 q0 -106 44 -160.5t130 -54.5q65 0 132.5 37.5t125.5 107.5q122 151 201 359t79 370q0 106 -30.5 150.5t-102.5 44.5q-51 0 -110.5 -28.5t-112.5 -78.5q-157 -150 -256.5 -360.5t-99.5 -386.5z" />
<glyph unicode="1" horiz-adv-x="541" d="M-129 76q0 46 158 67q24 3 37 5q26 131 106 383.5t203 594.5q-18 -2 -35.5 -3t-40.5 -1q-49 0 -68.5 10.5t-19.5 34.5q0 55 68 79t227 24q39 0 64.5 -17t25.5 -41q0 -12 -47 -122q-198 -464 -334 -930h8q48 0 79.5 -18t31.5 -44q0 -44 -73 -55q-17 -2 -27 -4 q-81 -13 -178 -30t-103 -17q-31 0 -56.5 25t-25.5 59z" />
<glyph unicode="2" horiz-adv-x="1014" d="M10 94q0 35 59 47q50 11 89 23q104 47 239.5 186t288.5 359q73 104 115.5 199.5t42.5 148.5q0 28 -17 44.5t-47 16.5q-43 0 -101.5 -28.5t-121.5 -81.5q-92 -78 -172 -162t-135 -162q-9 -12 -24 -35q-31 -47 -52 -47q-25 0 -48.5 25t-23.5 49q0 22 50 100t131 178 q131 163 241.5 248.5t188.5 85.5q44 0 81 -23.5t48 -58.5q78 -30 120 -78.5t42 -109.5q0 -142 -186.5 -389t-479.5 -465q20 1 57 3q101 7 150 7q126 0 167.5 -16.5t41.5 -65.5q0 -24 -13 -39t-41 -22q-40 2 -73 3t-62 1q-189 0 -418 -41q-61 -10 -75 -10q-29 0 -45.5 30 t-16.5 80z" />
<glyph unicode="3" horiz-adv-x="1014" d="M-12 145q0 40 24.5 73.5t48.5 33.5q30 0 52 -61q9 -26 16 -42q15 -31 41 -49t57 -18q32 0 109 33t160 86q84 53 128 102t44 90q0 61 -55.5 93t-161.5 32q-70 0 -137 -3q-11 -1 -13 -1q-15 0 -22 8.5t-7 28.5q0 90 137 110q12 2 17 3q63 12 153 55.5t162 97.5 q74 57 116 114t42 99q0 36 -25.5 54t-78.5 18q-92 0 -228.5 -59t-265.5 -158q-25 -19 -55.5 -46.5t-38.5 -27.5q-18 0 -36.5 17t-18.5 34q0 23 48 76t126 113q128 99 251.5 158t194.5 59q38 0 68.5 -21t42.5 -55q75 -35 113 -84t38 -111q0 -98 -112 -200t-316 -187 q93 -27 146 -88.5t55 -142.5q2 -15 3 -23t1 -14q0 -57 -51 -124t-139 -124q-103 -65 -197.5 -99t-175.5 -34q-108 0 -184 56.5t-76 127.5z" />
<glyph unicode="4" horiz-adv-x="1014" d="M2 328q0 46 113 186.5t508 566.5q85 93 150.5 146t92.5 53q57 0 101.5 -20.5t44.5 -42.5q0 -4 -20 -51q-150 -348 -281 -773q6 0 18 -1t19 -1q83 0 117 -19.5t34 -66.5q0 -8 -2 -18.5t-2 -12.5q-6 1 -15 1q-45 4 -65 4q-21 0 -58.5 -2t-88.5 -5q-33 -84 -66 -199 q-33 -114 -70 -114q-31 0 -49 19t-18 53q0 39 48 226l3 11q-148 -5 -292.5 -21t-145.5 -16q-33 0 -54.5 28t-21.5 69zM156 369q111 10 212.5 16.5t190.5 7.5q56 150 142 397.5t122 344.5q-194 -214 -362.5 -407.5t-304.5 -358.5z" />
<glyph unicode="5" horiz-adv-x="1014" d="M8 170q0 51 26.5 94t53.5 43q25 0 27.5 -42.5t9.5 -59.5q23 -52 69 -87.5t91 -35.5q46 0 109.5 31.5t127.5 87.5q105 92 174.5 200t69.5 168q0 41 -27 60.5t-84 19.5q-59 0 -144 -23.5t-167 -64.5q-31 -15 -69 -38t-48 -23q-23 0 -60.5 39.5t-37.5 60.5q0 14 62 174 q24 63 38 100q22 56 57 146q69 179 81 194q26 32 164.5 52t340.5 20q90 0 112 -15.5t22 -62.5q0 -54 -199 -67q-189 -12 -324 -33q-40 -77 -84.5 -187t-93.5 -251q80 48 160 72t160 24q116 0 195 -77t79 -177q0 -78 -56 -170.5t-161 -183.5q-107 -95 -216 -147t-196 -52 q-113 0 -187.5 59.5t-74.5 151.5z" />
<glyph unicode="6" horiz-adv-x="1014" d="M63 270q0 142 78 333.5t211 367.5q124 163 225 257.5t148 94.5q32 0 60 -19t28 -36q0 -15 -37 -37q-9 -5 -15 -9q-64 -40 -178 -186t-221 -336q65 50 128.5 75.5t121.5 25.5q52 0 107 -32.5t123 -102.5q24 -28 35.5 -60t11.5 -76q0 -104 -58 -212.5t-161 -194.5 q-83 -70 -168 -104.5t-176 -34.5q-120 0 -191.5 78t-71.5 208zM219 219q0 -67 30 -104t83 -37q38 0 86.5 24t99.5 70q111 99 172.5 197.5t61.5 175.5q0 63 -41 97t-117 34q-72 0 -143 -29.5t-144 -89.5q-43 -84 -65.5 -171t-22.5 -167z" />
<glyph unicode="7" horiz-adv-x="844" d="M16 14q0 42 216.5 362t549.5 765q-196 -13 -386 -44.5t-193 -31.5q-18 0 -27.5 9t-9.5 26q0 36 11 61t32 35q69 33 255 61.5t390 28.5q44 0 57.5 -5t28.5 -21q23 -26 36 -47.5t13 -32.5q0 -13 -9 -27t-30 -33q-240 -318 -448.5 -612.5t-374.5 -550.5q-10 -4 -19.5 -6 t-21.5 -2q-29 0 -49.5 19t-20.5 46z" />
<glyph unicode="8" horiz-adv-x="1014" d="M2 236q0 83 108.5 195t290.5 212q-72 46 -99.5 86.5t-27.5 99.5q0 67 35 139.5t99 139.5q73 78 167.5 122t188.5 44q85 0 139 -35.5t80 -108.5q17 -36 24 -61.5t7 -46.5q0 -71 -76.5 -152.5t-263.5 -205.5q99 -32 156 -99t57 -151q0 -64 -43.5 -129.5t-128.5 -132.5 q-116 -93 -226.5 -141t-205.5 -48q-110 0 -195.5 86t-85.5 187zM141 184q0 -42 34.5 -67t92.5 -25q64 0 136.5 28t144.5 81q97 72 145.5 131.5t48.5 105.5q0 47 -45 80.5t-155 67.5q-182 -111 -292 -222.5t-110 -179.5zM430 854q0 -32 27.5 -65t79.5 -64q157 93 250.5 183 t93.5 147q0 38 -32.5 67t-80.5 29q-51 0 -110 -31t-121 -90q-50 -46 -78.5 -94t-28.5 -82z" />
<glyph unicode="9" horiz-adv-x="1014" d="M131 633q0 88 62.5 226t162.5 261q69 83 133.5 124.5t122.5 41.5q41 0 92.5 -19.5t118.5 -60.5q80 -46 119 -108t39 -144q0 -56 -16.5 -120t-46.5 -127q-89 -182 -213 -357t-263 -313q-39 -39 -68 -55.5t-73 -16.5q-37 0 -52.5 6.5t-15.5 20.5q0 3 125.5 142t231.5 310 q-63 -26 -106.5 -37.5t-77.5 -11.5q-112 0 -193.5 69t-81.5 169zM274 627q0 -48 38 -72.5t112 -24.5q54 0 118.5 15t139.5 45q78 126 116 224t38 175q0 76 -30.5 125t-76.5 49q-51 0 -126 -47.5t-150 -130.5q-81 -88 -130 -189.5t-49 -168.5z" />
<glyph unicode=":" horiz-adv-x="508" d="M72 43q0 52 42 90.5t95 38.5q29 0 47 -17.5t18 -43.5q0 -45 -40 -93.5t-70 -48.5q-46 0 -69 18.5t-23 55.5zM176 551q0 54 44 91.5t106 37.5q22 0 38.5 -18.5t16.5 -43.5q0 -41 -50.5 -87t-97.5 -46q-29 0 -43 16t-14 50z" />
<glyph unicode=";" horiz-adv-x="508" d="M12 -82q0 15 20 54.5t62 109.5q9 14 23 39q42 74 82 74q24 0 39.5 -10t15.5 -25q0 -14 -8 -24.5t-29 -22.5q-23 -30 -53.5 -77.5t-71.5 -119.5q-10 -15 -19 -21t-22 -6q-16 0 -27.5 9t-11.5 20zM188 578q0 42 38 81t79 39q33 0 52.5 -20.5t19.5 -54.5q0 -42 -39 -71.5 t-88 -29.5q-29 0 -45.5 14.5t-16.5 41.5z" />
<glyph unicode="&#x3c;" horiz-adv-x="1706" d="M264 559v103l1178 483v-127l-1000 -408l1000 -405v-129z" />
<glyph unicode="=" horiz-adv-x="1706" d="M254 360v117h1198v-117h-1198zM254 743v117h1198v-117h-1198z" />
<glyph unicode="&#x3e;" horiz-adv-x="1706" d="M264 76v129l1000 405l-1000 408v127l1178 -483v-103z" />
<glyph unicode="?" horiz-adv-x="973" d="M168 41q0 51 51 103.5t105 52.5q30 0 54.5 -24.5t24.5 -53.5q0 -48 -50.5 -97t-106.5 -49q-36 0 -57 18.5t-21 49.5zM229 981q0 29 24.5 65t78.5 87q103 98 182.5 150t126.5 52q45 0 73.5 -22t51.5 -74q91 -40 131.5 -89t40.5 -118q0 -126 -284 -461q-152 -180 -238 -290 q-12 -6 -23 -8.5t-31 -2.5q-33 0 -45 8t-12 27q0 29 127 201q65 88 105 143q12 18 36 51q197 275 197 379q0 43 -22 66.5t-62 23.5q-80 0 -189.5 -76t-199.5 -200q-39 26 -53.5 45.5t-14.5 42.5z" />
<glyph unicode="@" horiz-adv-x="2048" d="M113 522q0 163 50.5 309t149.5 269q146 176 349.5 267t453.5 91q165 0 311 -43.5t248 -124.5q129 -99 195.5 -230t66.5 -282q0 -169 -62.5 -308.5t-182.5 -236.5q-69 -55 -148.5 -83.5t-163.5 -28.5q-99 0 -148.5 39t-49.5 116q0 3 1 11t1 12q-51 -87 -127 -132.5 t-170 -45.5q-153 0 -233.5 85t-80.5 247q0 230 137 389t332 159q91 0 153.5 -39.5t96.5 -117.5l58 121h110l-141 -568q-6 -24 -9 -44t-3 -36q0 -44 27.5 -67t82.5 -23q45 0 100 24t103 64q89 76 139.5 196.5t50.5 254.5q0 266 -195.5 428t-518.5 162q-168 0 -312.5 -52 t-259.5 -153q-140 -122 -211 -282.5t-71 -354.5q0 -173 60.5 -304t186.5 -230q101 -81 240 -124.5t295 -43.5q172 0 334.5 48.5t296.5 139.5l45 -66q-147 -109 -313 -165t-347 -56q-191 0 -348 46.5t-276 138.5q-153 117 -228 272t-75 352zM713 446q0 -110 51 -169.5 t145 -59.5q102 0 183.5 70.5t109.5 185.5l60 242q-17 90 -72 140t-135 50q-146 0 -244 -131.5t-98 -327.5z" />
<glyph unicode="A" horiz-adv-x="920" d="M-76 2q0 65 133.5 347.5t339.5 633.5h1q171 293 284 293q23 0 54.5 -12t42.5 -15q35 -9 48 -20t13 -29q0 -15 -18.5 -45t-24.5 -51q-24 -71 -49 -332.5t-25 -554.5q0 -35 2 -77.5t2 -49.5q0 -37 -20.5 -57.5t-57.5 -20.5q-65 1 -68 235q-1 45 -2 68q-102 -8 -209.5 -23 t-217.5 -36q-25 -51 -58 -137q-59 -158 -135 -158q-15 0 -25 11.5t-10 29.5zM230 416q94 9 182 14.5t167 7.5q9 208 23.5 380t36.5 315q-159 -237 -408 -714z" />
<glyph unicode="B" horiz-adv-x="948" d="M8 92q0 69 81.5 357.5t207.5 631.5q0 1 -1 3.5t-1 5.5v24q0 67 62 100t186 33q101 0 182.5 -28.5t130.5 -79.5q50 -52 80.5 -108.5t30.5 -96.5q0 -77 -101 -160.5t-280 -152.5q107 -8 179.5 -75.5t72.5 -156.5q0 -53 -31.5 -106t-91.5 -103q-120 -99 -262.5 -155 t-274.5 -56q-77 0 -123.5 36t-46.5 87zM137 98q13 -13 30.5 -18.5t47.5 -5.5q77 0 190.5 58.5t221.5 156.5q40 36 61 69.5t21 63.5q0 49 -55.5 75.5t-157.5 26.5q-59 0 -118.5 -6t-115.5 -18q-37 -96 -68 -195.5t-57 -206.5zM311 641q241 56 385 157.5t144 211.5 q0 44 -35.5 63t-122.5 19q-66 0 -122 -7t-105 -20q-41 -106 -77 -212t-67 -212z" />
<glyph unicode="C" horiz-adv-x="901" d="M12 287q0 130 81 329.5t224 413.5q87 129 160 195.5t127 66.5q32 0 68.5 -14.5t77.5 -42.5q78 -22 124 -68t46 -100q0 -39 -24 -67.5t-54 -28.5q-25 0 -38 20t-22 85q-3 24 -28 41.5t-60 17.5q-63 0 -137.5 -56t-155.5 -164q-110 -145 -175.5 -319t-65.5 -313 q0 -101 49 -157t135 -56q55 0 117 21t135 65q33 20 86 59t74 39q8 0 14 -8.5t6 -20.5q0 -21 -26.5 -54.5t-75.5 -72.5q-78 -62 -158.5 -96.5t-144.5 -34.5q-165 0 -262 86.5t-97 233.5z" />
<glyph unicode="D" horiz-adv-x="1053" d="M27 61q0 93 83 405t216 664q-9 21 -13 38t-4 32q0 40 27 52t119 12q271 0 421 -123.5t150 -343.5q0 -140 -85 -282.5t-251 -283.5q-143 -121 -292 -192.5t-251 -71.5q-59 0 -89.5 24t-30.5 70zM174 80q131 36 250.5 110.5t226.5 186.5q116 121 182 251.5t66 233.5 q0 115 -82.5 175.5t-241.5 60.5q-6 0 -28 -1.5t-68 -5.5q-115 -309 -194.5 -574.5t-110.5 -436.5z" />
<glyph unicode="E" horiz-adv-x="930" d="M16 76q0 26 66.5 274.5t218.5 792.5q23 82 49 96t160 14q67 0 220.5 -17.5t236.5 -23.5q17 -1 25.5 -7t8.5 -17q0 -53 -247 -71q-180 -12 -299 -27q-37 -107 -76.5 -240t-85.5 -301q131 14 229 20t172 6q54 0 78.5 -10.5t24.5 -34.5q0 -28 -11.5 -42.5t-36.5 -16.5 q-81 -4 -199 -17.5t-294 -39.5q-30 -97 -50 -166t-34 -121q220 28 338.5 40.5t163.5 12.5q50 0 75 -9.5t25 -29.5q0 -41 -97 -54q-13 -2 -20 -3q-129 -21 -310 -68t-228 -47q-40 0 -71.5 32t-31.5 75z" />
<glyph unicode="F" horiz-adv-x="807" d="M4 0q0 27 25.5 134t74.5 286q74 269 139 479t91 268q12 26 81 35.5t351 9.5q145 0 183 -15.5t38 -57.5q0 -18 -12.5 -27.5t-34.5 -9.5q-7 0 -28.5 2t-34.5 2q-39 0 -256 -30q-104 -15 -166 -23q-57 -176 -93.5 -303t-56.5 -219q39 0 93 3t69 3q87 0 132.5 -15.5 t45.5 -44.5q0 -59 -202 -69q-108 -5 -177 -11q-41 -132 -73 -272.5t-35 -148.5q-7 -17 -27.5 -25t-52.5 -8q-36 0 -55 14.5t-19 42.5z" />
<glyph unicode="G" horiz-adv-x="948" d="M-6 225q0 134 60.5 312.5t162.5 339.5q102 159 234 274t182 115q20 0 52.5 -19.5t90.5 -66.5q63 -35 111.5 -100t48.5 -99q0 -12 -10 -24.5t-21 -12.5q-19 0 -76 81t-108 81q-43 0 -105.5 -37t-123.5 -100q-54 -55 -99.5 -115.5t-87.5 -130.5q-82 -139 -125 -265 t-43 -229q0 -81 28 -117t91 -36q138 0 273.5 89.5t215.5 237.5q-1 1 -5 1q-30 3 -46 4q-45 0 -137 -17.5t-137 -17.5q-46 0 -71 19t-25 52q0 28 122 56t267 28q92 0 124.5 -26.5t32.5 -95.5q0 -37 -48.5 -111t-125.5 -148q-93 -90 -186.5 -134t-192.5 -44q-37 0 -71 9.5 t-70 29.5q-111 56 -146.5 100.5t-35.5 116.5z" />
<glyph unicode="H" horiz-adv-x="1022" d="M0 -6q0 49 80 349t199 649l12 39q44 138 112 138q42 0 74.5 -19.5t32.5 -45.5q0 -16 -26 -44t-40 -54q-30 -59 -78 -199.5t-93 -310.5q15 -1 30 -1.5t35 -0.5q58 0 153 5t203 15l30 98q226 758 323 758q36 0 68 -20t32 -37q0 -19 -25 -41.5t-32 -31.5q-28 -42 -59 -119.5 t-77 -223.5q-54 -172 -100.5 -350.5t-85.5 -362.5q-17 -84 -31.5 -103.5t-44.5 -19.5q-35 0 -59.5 24t-24.5 60q0 30 27 134q20 75 30 120q-179 -7 -277.5 -14t-158.5 -17q-40 -128 -73 -291q-29 -143 -76 -143q-37 0 -58.5 16.5t-21.5 43.5z" />
<glyph unicode="I" horiz-adv-x="469" d="M6 53q0 44 70 287t186 598q5 15 15 46q92 292 178 292q20 0 50 -24t30 -46q0 -7 -31 -80q-205 -492 -346 -1069v-16v-3q2 -11 2 -20q0 -16 -13.5 -25t-37.5 -9q-52 0 -77.5 17t-25.5 52z" />
<glyph unicode="J" horiz-adv-x="772" d="M-117 178q0 27 27 53.5t53 26.5q18 0 29.5 -19t19.5 -61q23 -38 74.5 -63t108.5 -25q140 0 295 613q70 281 118 452q13 57 42 85t77 28q33 0 57.5 -16.5t24.5 -34.5q0 -5 -18.5 -50t-32.5 -92q-58 -183 -132 -445.5t-100 -334.5q-52 -145 -159.5 -236.5t-206.5 -91.5 q-66 0 -118 31.5t-108 107.5q-2 3 -7 8q-44 40 -44 64z" />
<glyph unicode="K" horiz-adv-x="862" d="M-4 10q0 40 80 327.5t221 754.5q0 6 -2 17v3q0 59 30 95t76 36q32 0 58 -16.5t26 -40.5q0 -19 -60 -200t-106 -329q100 106 246.5 238.5t388.5 333.5q31 26 53 37.5t40 11.5q17 0 25.5 -10t8.5 -29q0 -16 -10.5 -29.5t-28.5 -19.5q-86 -73 -222 -201.5t-437 -423.5 q159 -157 260.5 -305t101.5 -209q0 -34 -33 -64t-65 -30q-11 0 -18.5 6t-7.5 14q0 5 6 15t6 16q0 35 -328 421l-43 50q-45 -159 -86 -316.5t-43 -162.5q-8 -20 -31 -31.5t-53 -11.5q-24 0 -38.5 14.5t-14.5 38.5z" />
<glyph unicode="L" horiz-adv-x="750" d="M10 70q0 54 86 364.5t213 681.5q3 8 8 22q40 115 103 115q58 0 94.5 -14t36.5 -37q0 -18 -29 -62l-2 -4q-138 -319 -231.5 -585t-126.5 -428q116 24 219 36.5t190 12.5q56 0 79.5 -13.5t23.5 -43.5q-1 -31 -68 -38q-36 -4 -59 -7q-143 -20 -297.5 -56.5t-171.5 -36.5 q-35 0 -51.5 23t-16.5 70z" />
<glyph unicode="M" horiz-adv-x="1190" d="M-72 33q0 44 99.5 294t259.5 603q21 47 52 121q72 172 159 172q56 0 89.5 -12t33.5 -31q0 -4 -11 -35q-115 -348 -145 -838q215 426 383.5 686t224.5 260q76 0 128 -17.5t52 -41.5q0 -6 -4.5 -14t-13.5 -17q-99 -209 -180 -457.5t-133 -504.5q-7 -33 -16 -87 q-19 -116 -60 -116q-29 0 -45.5 21t-16.5 59q0 139 81 426.5t222 644.5q-99 -118 -218.5 -311.5t-268.5 -477.5q-14 -25 -35 -69q-61 -119 -108 -119q-45 0 -76 22t-31 58q0 153 35.5 381.5t99.5 486.5q-178 -372 -317 -762.5t-162 -390.5q-29 0 -53.5 21.5t-24.5 44.5z" />
<glyph unicode="N" horiz-adv-x="977" d="M-8 4q0 22 18 99.5t49 185.5q73 253 152.5 479.5t138.5 355.5q21 46 70.5 70.5t120.5 24.5q27 0 43 -6.5t16 -16.5q0 -9 -7 -27.5t-20 -44.5q-14 -57 -21 -121.5t-7 -146.5q0 -169 15.5 -324.5t47.5 -300.5q77 337 234 764l8 21q11 29 28 79q66 187 130 187 q18 0 30.5 -8.5t12.5 -20.5q0 -7 -7.5 -23t-21.5 -42q-114 -314 -194.5 -571.5t-120.5 -436.5q-2 -7 -6 -24q-24 -117 -103 -117q-19 0 -51.5 25t-48.5 53q-26 43 -58 255t-32 443q0 39 1.5 89.5t4.5 112.5q-109 -305 -185.5 -556t-113.5 -422q-4 -16 -8 -41 q-10 -53 -27 -53q-28 0 -58 18.5t-30 40.5z" />
<glyph unicode="O" horiz-adv-x="1102" d="M35 350q0 132 55 280t160 294q114 160 240 260t204 100q33 0 63 -14.5t70 -50.5q118 -17 179 -102.5t61 -233.5q0 -115 -35 -255.5t-96 -265.5q-91 -184 -228.5 -294.5t-271.5 -110.5q-75 0 -164.5 34t-134.5 79q-50 45 -76 116.5t-26 163.5zM176 317q0 -118 57 -183.5 t160 -65.5q100 0 197.5 68t175.5 192q78 125 126 287.5t48 299.5q0 112 -41.5 170t-122.5 58q-73 0 -148.5 -45.5t-154.5 -136.5q-141 -165 -219 -334t-78 -310z" />
<glyph unicode="P" horiz-adv-x="862" d="M12 23q0 60 87 393t223 776v12q0 43 30 60.5t103 17.5q217 0 348 -86t131 -227q0 -175 -186.5 -322t-479.5 -196q-34 -127 -58.5 -226.5t-39.5 -175.5q-6 -42 -21 -59t-47 -17q-34 0 -62 15.5t-28 34.5zM301 571q203 31 354.5 161.5t151.5 256.5q0 61 -68 100t-176 39 q-26 0 -49.5 -3.5t-44.5 -10.5q-52 -144 -94 -281t-74 -262z" />
<glyph unicode="Q" horiz-adv-x="1071" d="M25 322q0 177 102 396t283 423q72 82 126.5 118.5t102.5 36.5q34 0 66 -11.5t67 -37.5q132 -11 197 -106.5t65 -278.5q0 -219 -97.5 -428t-258.5 -332q82 -85 111.5 -122t29.5 -52q0 -32 -24 -64t-47 -32q-3 0 -49 68t-124 133q-58 -28 -118 -43t-115 -15q-131 0 -224 98 t-93 249zM162 281q0 -101 40 -153t117 -52q35 0 72.5 9.5t71.5 27.5q-28 23 -73 56q-58 44 -58 62q0 13 10 21t27 8q34 0 92 -24t114 -64q146 114 237 322.5t91 431.5q0 115 -32.5 168t-102.5 53q-79 0 -148.5 -39t-144.5 -125q-137 -158 -225 -358.5t-88 -343.5z" />
<glyph unicode="R" horiz-adv-x="930" d="M20 84q0 23 23 126t59 234q82 295 149.5 513t98.5 288q15 35 57 49.5t128 14.5q172 0 306 -112t134 -234q0 -147 -164 -269t-446 -182q126 -140 261 -248l134 -108q0 -21 -29 -47.5t-59 -26.5q-45 0 -158.5 87.5t-269.5 244.5q-10 -33 -36 -135t-61 -241 q-1 -24 -12.5 -38t-32.5 -14q-24 0 -53 32t-29 66zM306 602q205 7 363 125t158 246q0 81 -86 139.5t-206 58.5q-6 0 -23.5 -1.5t-26.5 -2.5q-62 -171 -106.5 -310t-72.5 -255z" />
<glyph unicode="S" horiz-adv-x="819" d="M-68 262q0 25 20.5 47.5t43.5 22.5q19 0 33 -37q7 -17 12 -27q43 -86 120 -131t181 -45q51 0 82.5 20t42.5 60q-10 41 -47 88t-113 115q-87 76 -114 133.5t-27 136.5q0 102 50 215.5t146 233.5q67 81 126.5 127.5t95.5 46.5q2 0 11 -3.5t15 -4.5h6q45 0 77.5 -22.5 t86.5 -102.5q87 -54 115.5 -86.5t28.5 -69.5q0 -19 -24 -36t-46 -17q-24 0 -51 29.5t-49 80.5q-2 4 -4 10q-17 50 -62 50q-53 0 -114 -42t-119 -120q-60 -78 -91.5 -163t-31.5 -167q0 -67 42.5 -144t117.5 -147q16 -15 49 -42q90 -74 90 -130q0 -73 -78.5 -124.5 t-198.5 -51.5q-160 0 -291 100.5t-131 196.5z" />
<glyph unicode="T" horiz-adv-x="868" d="M176 1137q0 32 185 59t448 27q132 0 183.5 -16.5t51.5 -57.5q0 -11 -6 -33q-1 -4 -2 -6q-116 -5 -207 -11t-159 -14q-113 -329 -202.5 -608t-131.5 -428q-19 -67 -35 -85.5t-47 -18.5q-32 0 -52 18t-20 47q0 44 85 336.5t224 726.5q-79 -5 -162.5 -12.5t-88.5 -7.5 q-29 0 -46.5 23t-17.5 61z" />
<glyph unicode="U" horiz-adv-x="1020" d="M74 229q0 114 66 347.5t175 479.5q5 11 12 27q66 150 134 150q34 0 63 -20t29 -48q0 -15 -8 -27t-25 -22q-144 -314 -221.5 -562.5t-77.5 -395.5q0 -49 16 -78t42 -29q30 0 77.5 34.5t104.5 98.5q73 83 124 164t72 148q100 301 161.5 480.5t84.5 237.5q15 38 34 52t52 14 q60 0 94.5 -19.5t34.5 -52.5q0 -20 -7.5 -32.5t-27.5 -22.5q-150 -322 -241.5 -611.5t-91.5 -404.5q0 -40 8 -79q2 -9 2 -11q0 -12 -17.5 -26.5t-35.5 -14.5q-38 0 -60 46.5t-22 125.5q0 16 1.5 33t3.5 36q-76 -127 -165.5 -204.5t-157.5 -77.5q-102 0 -167.5 71.5 t-65.5 192.5z" />
<glyph unicode="V" horiz-adv-x="844" d="M135 199v100q0 185 22 385t72 459q8 36 24 53.5t40 17.5q25 0 70 -28t45 -53q0 -16 -20 -91q-97 -380 -97 -743q0 -46 1.5 -89.5t4.5 -86.5q164 341 330.5 626.5t304.5 464.5q7 10 20 27q47 64 95 64q28 0 41.5 -5t13.5 -16q0 -30 -56 -101q-38 -49 -59 -81 q-118 -178 -284 -468.5t-341 -627.5q-22 -17 -62.5 -29t-80.5 -12q-49 0 -66.5 41t-17.5 193z" />
<glyph unicode="W" horiz-adv-x="1214" d="M84 80q0 48 15.5 196.5t41.5 323.5q27 187 55.5 332.5t49.5 204.5q12 34 40.5 54.5t59.5 20.5q23 0 35 -12.5t12 -36.5q0 -15 -68.5 -335t-117.5 -644q165 389 306.5 626t203.5 237q11 -1 19.5 -4t19.5 -11q19 -6 29 -18t10 -31q0 -14 -12 -77q-50 -283 -50 -552 q0 -60 2 -113.5t6 -103.5q114 307 222 562t215 466q29 60 55.5 82.5t64.5 22.5q27 0 43.5 -9t16.5 -22q0 -11 -57 -125q-254 -507 -443 -1024q-2 -5 -6 -17q-40 -114 -125 -114q-67 0 -91 86t-24 369q0 108 8 216.5t23 215.5q-97 -169 -183 -344.5t-192 -423.5 q-21 -51 -41 -67.5t-51 -16.5q-35 0 -63.5 27t-28.5 59z" />
<glyph unicode="X" horiz-adv-x="844" d="M-68 -14q0 54 351 506l43 55q-53 181 -86 331.5t-33 194.5q0 31 18 50.5t47 19.5q3 0 8.5 -1t8.5 -1q2 1 7 2q17 6 21 6q52 0 63 -10t15 -49q10 -95 25 -191.5t37 -196.5q72 87 187 231q249 312 351 312q15 0 28 -13.5t13 -27.5q0 -10 -10 -21.5t-29 -21.5 q-144 -163 -267 -314.5t-238 -307.5q60 -245 105.5 -360t92.5 -146q-9 -24 -28.5 -36.5t-45.5 -12.5q-66 0 -123 95t-128 329q-111 -142 -225.5 -318t-141.5 -176q-29 0 -47.5 20t-18.5 52z" />
<glyph unicode="Y" horiz-adv-x="807" d="M180 72q0 39 35 170.5t92 294.5q-50 212 -78 376.5t-28 247.5q0 39 20 59.5t60 20.5q72 0 95 -268q18 -201 38 -338q204 315 358.5 506.5t200.5 191.5q22 0 36.5 -18t14.5 -41q0 -11 -122 -162t-224 -289q-15 -19 -45 -58q-134 -172 -191 -323q-53 -142 -95 -322 q-34 -143 -79 -143q-36 0 -62 27.5t-26 67.5z" />
<glyph unicode="Z" horiz-adv-x="909" d="M-59 51q0 61 154 239l1 1q360 411 507 565t249 238q-309 -18 -591 -89q-45 -12 -52 -12q-18 0 -40 22t-22 40q0 10 7.5 18t23.5 14q153 70 353.5 112t377.5 42q52 0 96 -22.5t44 -49.5q0 -41 -46 -76q-25 -19 -38 -32q-227 -226 -434 -467.5t-375 -478.5 q112 20 214.5 30.5t196.5 10.5q53 0 77 -19.5t24 -60.5q0 -26 -17 -36.5t-71 -12.5q-108 -5 -248.5 -24t-321.5 -54q-35 26 -52 51.5t-17 50.5z" />
<glyph unicode="[" horiz-adv-x="606" d="M86 -209q0 43 7.5 118t21.5 159q61 372 138 679.5t144 462.5q18 40 67 57t144 17q38 0 57 -6t19 -18q0 -23 -87 -41q-48 -10 -77 -17q-128 -445 -210 -820t-107 -623q28 -4 46.5 -5.5t26.5 -1.5q15 0 41 1t37 1q20 0 29.5 -5.5t9.5 -16.5q0 -25 -51 -39.5t-141 -14.5 q-62 0 -88.5 26t-26.5 87z" />
<glyph unicode="\" horiz-adv-x="469" d="M135 1247q0 20 14.5 36.5t32.5 16.5q22 0 43.5 -20.5t28.5 -48.5q9 -39 16.5 -88.5t12.5 -104.5q31 -319 47 -609.5t16 -514.5q0 -59 -15 -81.5t-59 -22.5q-27 0 -37 18t-12 74q-21 592 -39.5 895t-40.5 430l-2 4q-6 11 -6 16z" />
<glyph unicode="]" horiz-adv-x="606" d="M-88 -299q0 22 87 40q47 10 77 18q128 446 210 820.5t107 622.5q-14 2 -40 5t-34 3q-14 0 -40 -2t-37 -2q-19 0 -28 6.5t-9 18.5q0 24 50.5 37.5t141.5 13.5q62 0 88.5 -25.5t26.5 -87.5q0 -34 -8.5 -110.5t-22.5 -163.5q-63 -382 -140 -692.5t-140 -452.5 q-18 -38 -67.5 -55t-145.5 -17q-40 0 -58 5.5t-18 17.5z" />
<glyph unicode="^" horiz-adv-x="2048" d="M422 901l520 557h162l520 -557h-158l-442 438l-442 -438h-160z" />
<glyph unicode="_" d="M0 -365h1024v-118h-1024v118z" />
<glyph unicode="`" d="M367 942q0 7 3.5 9.5t14.5 2.5h94q9 0 16 -6.5t11 -20.5l2 -7q14 -48 34 -94t38 -72l6 -7q2 -3 3 -6t1 -6q0 -4 -4 -6t-13 -2h-43q-9 0 -18.5 5.5t-15.5 15.5l-4 7q-6 9 -50 67.5t-67 101.5l-6 10q-2 4 -2 8z" />
<glyph unicode="a" horiz-adv-x="537" d="M-117 88q0 71 27 154t80 172q51 92 110.5 145t110.5 53q27 0 50 -14t46 -45q20 6 32 8t23 2q36 0 59 -15.5t23 -37.5q0 -14 -27 -69q-23 -45 -36 -74q-38 -84 -60 -153t-22 -97q0 -15 4 -21t14 -6q15 0 42.5 30.5t93.5 123.5q12 17 28 42q17 27 25 27q11 0 22 -16t11 -29 q0 -16 -32 -71.5t-79 -116.5q-36 -47 -65.5 -66.5t-61.5 -19.5q-44 0 -68 31.5t-24 89.5q0 16 0.5 25t1.5 15q-50 -91 -109 -140.5t-116 -49.5q-46 0 -74.5 34.5t-28.5 88.5zM-12 72q0 -13 4 -18t12 -5q20 0 56.5 35t74.5 92q59 88 100 180.5t41 114.5q0 14 -8 22.5t-22 8.5 q-34 0 -78 -46t-88 -128q-42 -79 -67 -149.5t-25 -106.5z" />
<glyph unicode="b" horiz-adv-x="541" d="M-88 51q0 66 68.5 311.5t175.5 534.5q42 112 64 150t42 38q12 0 26 -8.5t29 -25.5q15 -9 23 -16.5t8 -12.5q0 -13 -22 -32t-29 -27q-25 -31 -79.5 -179.5t-102.5 -332.5q61 77 114.5 114t102.5 37t76.5 -43t27.5 -121t-38.5 -182.5t-104.5 -200.5q-32 -47 -81.5 -74.5 t-100.5 -27.5q-30 0 -56.5 12t-58.5 41q-55 8 -69.5 17t-14.5 28zM20 92q0 -36 16.5 -54t49.5 -18q35 0 64.5 23.5t60.5 75.5q58 98 92.5 194t34.5 150q0 21 -8.5 35t-20.5 14q-27 0 -74.5 -37.5t-99.5 -101.5q-58 -70 -86.5 -139.5t-28.5 -141.5z" />
<glyph unicode="c" horiz-adv-x="451" d="M-74 123q0 112 61.5 258t141.5 225q21 20 44 28.5t54 8.5q22 0 41.5 -7t41.5 -22q33 -6 52 -34t19 -72q0 -69 -36 -143t-75 -74q-22 0 -39.5 16.5t-17.5 36.5q0 31 23 98.5t30 101.5l-8 1q-14 0 -29.5 -10t-29.5 -29q-71 -91 -118.5 -214.5t-47.5 -201.5q0 -47 16 -70.5 t49 -23.5q53 0 110.5 40.5t125.5 125.5q32 40 60 89.5t34 49.5q9 0 23 -10t14 -21q0 -16 -18 -54.5t-48 -82.5q-61 -92 -136.5 -141t-153.5 -49q-84 0 -133.5 48.5t-49.5 131.5z" />
<glyph unicode="d" horiz-adv-x="522" d="M-98 78q0 96 55 214.5t145 211.5q25 24 45 35.5t39 11.5q23 0 50.5 -14.5t58.5 -42.5q35 99 88 257q99 293 143 293q33 0 54.5 -13.5t21.5 -33.5t-37 -98q-26 -55 -41 -90q-96 -222 -153.5 -418t-57.5 -280q0 -19 5.5 -30t15.5 -11q17 0 42.5 27.5t73.5 100.5 q10 15 22 39q16 31 28 31q8 0 14 -5.5t6 -12.5q0 -12 -12 -40.5t-35 -72.5q-45 -86 -83 -123t-81 -37t-68.5 33.5t-29.5 95.5q-44 -91 -97 -145.5t-96 -54.5q-48 0 -82 49.5t-34 122.5zM0 41q0 -18 10 -31.5t23 -13.5q43 0 113.5 125t133.5 324q-11 14 -21 20t-21 6 q-24 0 -55 -32t-77 -103q-49 -76 -77.5 -157t-28.5 -138z" />
<glyph unicode="e" horiz-adv-x="408" d="M-84 143q0 94 44.5 225t113.5 232q22 32 47.5 49t50.5 17q14 -1 26.5 -5.5t29.5 -15.5q14 -4 36 -10q60 -16 60 -72q0 -126 -71 -231t-147 -105q-16 0 -31.5 7.5t-29.5 21.5q-7 -26 -10.5 -52.5t-3.5 -56.5q0 -57 15.5 -86.5t45.5 -29.5q56 0 132.5 70t133.5 177 q5 9 14 27q20 41 31 41t21 -11.5t10 -27.5q0 -20 -24 -66t-64 -98q-74 -95 -138.5 -136.5t-137.5 -41.5q-77 0 -115.5 44.5t-38.5 133.5zM78 352q0 -28 10.5 -44.5t28.5 -16.5q33 0 65.5 73t32.5 144q0 12 -7.5 21.5t-17.5 9.5q-28 0 -70 -71.5t-42 -115.5z" />
<glyph unicode="f" horiz-adv-x="379" d="M-27 18q0 34 28.5 139.5t78.5 254.5h-6q-37 0 -58.5 13t-21.5 34q0 16 27.5 27.5t87.5 19.5q88 334 215.5 540.5t232.5 206.5q15 0 29.5 -15.5t28.5 -48.5q8 -9 22 -25q45 -50 45 -66q0 -15 -16.5 -28t-32.5 -13q-22 0 -40 30.5t-42 30.5q-114 0 -316 -573l-12 -33 q6 0 18.5 -1t18.5 -1q61 0 81.5 -9.5t20.5 -37.5q0 -31 -25 -42t-124 -11h-23q-49 -142 -78 -309q-21 -126 -85 -126q-27 0 -40.5 11t-13.5 32z" />
<glyph unicode="g" horiz-adv-x="502" d="M-229 -350q0 17 8.5 28t21.5 11q10 0 17 -6.5t16 -28.5q23 -9 46.5 -13.5t49.5 -5.5q54 0 94 15.5t68 46.5q18 45 39.5 132t65.5 302q-69 -97 -112.5 -134.5t-82.5 -37.5q-51 0 -82 37.5t-31 101.5q0 86 43.5 196.5t114.5 201.5q43 54 69 71t58 17q24 0 53.5 -15 t68.5 -48q28 6 37 7.5t15 1.5q31 0 51.5 -17t20.5 -44q0 -7 -17 -44q-76 -171 -129 -393q-13 -56 -36 -178t-43 -165q-27 -59 -94.5 -93t-155.5 -34q-78 0 -126 25t-48 63zM-37 68q0 -24 10 -36t29 -12t40 19t52 63q73 102 119.5 197.5t46.5 136.5q0 22 -12 34.5t-33 12.5 q-27 0 -70.5 -47t-93.5 -133q-40 -69 -64 -135t-24 -100z" />
<glyph unicode="h" horiz-adv-x="502" d="M-115 4q0 64 74.5 288t198.5 521q8 19 22 54q103 249 172 249q13 0 24 -10t11 -21q0 -7 -37 -87q-202 -439 -360 -922q60 89 151 233q160 254 232 254q20 0 33.5 -14.5t13.5 -36.5q0 -15 -4 -29.5t-15 -36.5q-72 -154 -102.5 -236t-30.5 -120q0 -14 4.5 -21.5t12.5 -7.5 q22 0 57 39.5t94 132.5q3 5 8 13q23 37 35 37q7 0 22 -17t15 -28q0 -19 -35 -79t-84 -112q-33 -35 -64.5 -51t-66.5 -16q-44 0 -68 26.5t-24 77.5q0 37 10.5 88.5t36.5 138.5q-35 -57 -89 -152q-121 -212 -185 -212q-33 0 -47.5 13.5t-14.5 43.5z" />
<glyph unicode="i" horiz-adv-x="307" d="M-59 150q0 91 30 208t60 160q12 19 38 30t58 11q18 0 28.5 -8.5t10.5 -24.5q0 -6 -14 -42l-15 -40l-13 -37q-85 -232 -85 -292q0 -23 8.5 -34t26.5 -11q26 0 75 50t97 130q6 11 17 32q17 33 26 33q12 0 24.5 -11.5t12.5 -27.5q0 -7 -35 -66q-17 -29 -27 -46 q-58 -99 -106 -140.5t-101 -41.5t-84.5 45t-31.5 123zM66 672q0 37 39 61.5t81 24.5q27 0 40.5 -13t13.5 -38q0 -36 -32.5 -65.5t-72.5 -29.5q-31 0 -50 16t-19 44z" />
<glyph unicode="j" horiz-adv-x="217" d="M-551 -301q0 12 8 21.5t19 9.5q8 0 16.5 -10t16.5 -30q42 -35 92.5 -54t99.5 -19q16 0 32.5 3t33.5 9q45 49 120 383q47 214 80 346q6 23 15 62q33 143 98 143q29 0 44 -10.5t15 -30.5q0 -13 -7 -27t-23 -32q-54 -187 -110.5 -455.5t-90.5 -322.5q-34 -55 -100.5 -96.5 t-129.5 -41.5q-93 0 -161 47.5t-68 104.5zM33 664q0 35 31 63.5t71 28.5q42 0 55 -8.5t13 -30.5q0 -35 -34 -71t-75 -36q-29 0 -45 14.5t-16 39.5z" />
<glyph unicode="k" horiz-adv-x="502" d="M-133 -16q0 13 46 166q23 72 36 116q109 363 153.5 504t67.5 203l2 6q30 86 86 86q24 0 44 -16t20 -33q-1 -2 -5 -7q-35 -41 -69 -122q-40 -96 -83.5 -231t-90.5 -312q32 27 86 76q186 162 231 162q33 0 46.5 -4.5t13.5 -14.5q0 -12 -92 -87.5t-169 -151.5 q20 -137 47.5 -210t59.5 -73q23 0 54 37t108 166q2 4 5 9q15 29 28 30q8 0 20 -12t12 -25q0 -22 -31 -83t-77 -118q-36 -44 -74 -65t-82 -21q-58 0 -98.5 52.5t-91.5 205.5l-45 -35q-23 -64 -44 -154q-23 -96 -55 -96q-25 0 -42 15.5t-17 36.5z" />
<glyph unicode="l" horiz-adv-x="408" d="M-49 279q0 15 34 20t58 29q58 221 124 430t140 406q-1 4 -1.5 8t-0.5 12q0 25 34.5 49t66.5 24q42 0 85.5 -42.5t43.5 -77.5q0 -89 -113 -341.5t-291 -519.5q-6 -34 -9 -61.5t-3 -50.5q0 -67 12.5 -95t40.5 -28q27 0 60 34t81 111q19 30 41.5 72.5t30.5 42.5 q10 0 27.5 -14.5t17.5 -24.5q0 -1 -1.5 -5.5t-4.5 -10.5q-58 -114 -87 -159t-56 -73q-32 -31 -61.5 -45t-63.5 -14q-55 0 -100.5 55t-45.5 123q0 24 1.5 47t4.5 45q-9 -2 -14 -3t-8 -1q-18 0 -30.5 18.5t-12.5 39.5zM150 403q128 241 210 451t82 270q0 11 -5 17t-13 6 q-3 0 -13 -3q-4 -1 -5 -1q-84 -214 -148 -399t-108 -341z" />
<glyph unicode="m" horiz-adv-x="725" d="M-100 63q0 29 49 189q36 115 57 188q21 72 34.5 89.5t37.5 17.5q28 0 52 -23.5t24 -52.5q0 -16 -22.5 -41t-32.5 -44q-14 -25 -43 -118t-58 -211q138 254 208 353.5t107 99.5q19 0 31 -15.5t16 -44.5l-16 -30q-25 -69 -44 -144t-32 -157q126 243 204 360t114 117 q13 -1 23 -11t20 -32q12 -11 18 -21.5t6 -19.5t-6.5 -22t-28.5 -46q-47 -72 -80.5 -164.5t-33.5 -134.5q0 -22 7 -33.5t21 -11.5q23 0 48.5 28.5t78.5 119.5q17 28 33.5 63t20.5 35q12 0 29.5 -17.5t17.5 -31.5q0 -15 -20.5 -57.5t-53.5 -94.5q-44 -70 -81.5 -103.5 t-69.5 -33.5q-20 0 -40.5 13.5t-41.5 41.5q-17 16 -25 33.5t-8 40.5q0 45 76 264l6 17q-50 -84 -119 -218q-101 -194 -154 -194q-29 0 -46 17t-17 47q0 31 38 199q8 37 13 58q-61 -95 -127 -228q-61 -124 -100 -124q-48 0 -69 21t-21 67z" />
<glyph unicode="n" horiz-adv-x="526" d="M-86 70q0 50 32.5 181t82.5 249q17 41 32.5 54t42.5 13q23 0 42.5 -13.5t19.5 -31.5q0 -4 -13 -31q-84 -172 -118 -368q133 256 207.5 366.5t113.5 110.5q32 0 60 -22t28 -50q0 -17 -20 -33t-21 -16q-5 -7 -19 -43.5t-30 -87.5q-21 -72 -34 -138.5t-13 -98.5 q0 -21 5.5 -33t15.5 -12q32 0 122 153q16 28 25 43q3 5 8 16q10 23 27 23q10 0 26.5 -14.5t16.5 -24.5q0 -20 -46.5 -105t-103.5 -143q-20 -20 -41 -30.5t-43 -10.5q-51 0 -79.5 42t-28.5 118q0 35 7.5 89t23.5 128q-52 -85 -119 -213q-82 -155 -123 -155q-38 0 -62 23.5 t-24 64.5z" />
<glyph unicode="o" horiz-adv-x="473" d="M-86 109q0 67 33 161.5t88 180.5q31 49 61.5 73.5t61.5 24.5q20 0 35.5 -9t24.5 -26l4 1q19 3 32 3q43 0 70 -44t28 -117q53 16 97 71t57 55q15 0 24 -7.5t9 -20.5q0 -16 -9 -32t-28 -36q-37 -54 -78 -85.5t-86 -39.5q-44 -156 -114 -237.5t-161 -81.5q-68 0 -108.5 44.5 t-40.5 121.5zM33 98q0 -32 10.5 -47.5t32.5 -15.5q53 0 114.5 117t61.5 225q0 27 -10 42t-27 15q-50 0 -116 -115.5t-66 -220.5z" />
<glyph unicode="p" horiz-adv-x="502" d="M-195 -438q0 51 47.5 277.5t120.5 502.5q10 36 27 100q80 299 127 299q19 0 35 -12t16 -29q0 -13 -26 -91.5t-43 -143.5q52 76 87.5 108.5t65.5 32.5q53 0 87 -51.5t34 -134.5q0 -169 -85 -308t-183 -139q-38 0 -70.5 20t-44.5 50q-43 -188 -67.5 -312t-24.5 -157 q0 -13 9 -24t9 -13q0 -16 -13 -27.5t-30 -11.5q-38 0 -58 16t-20 48zM29 120q3 -28 22.5 -46.5t44.5 -18.5q39 0 69.5 33.5t63.5 114.5q26 63 40 121.5t14 105.5q0 31 -8 47.5t-23 16.5q-36 0 -105 -109t-118 -265z" />
<glyph unicode="q" horiz-adv-x="551" d="M-84 145q0 85 58 194.5t169 238.5q25 26 37 33t27 7q36 0 71 -14t78 -47q15 7 26 9.5t21 2.5q25 0 48.5 -19.5t23.5 -39.5q0 -6 -13 -27.5t-22 -42.5q-85 -205 -149 -426.5t-96 -425.5q1 -1 4 -3q18 -12 18 -23q0 -15 -34.5 -33t-63.5 -18q-21 0 -32 12t-11 35q0 10 7 34 q0 2 1 5q8 85 37.5 204.5t97.5 331.5q-60 -74 -107 -108.5t-87 -34.5q-22 0 -41.5 15.5t-32.5 43.5q-18 22 -26.5 45.5t-8.5 50.5zM-4 109q0 -15 6 -23t16 -8q42 0 87 42t116 152q41 64 65.5 123t24.5 88q0 13 -9.5 23t-20.5 10q-26 0 -65 -33t-83 -92q-64 -86 -100.5 -162 t-36.5 -120z" />
<glyph unicode="r" horiz-adv-x="436" d="M-68 225q0 4 14 34q61 136 95 276q-19 12 -27 22t-8 23q0 32 36 63t79 31q22 0 36.5 -12.5t14.5 -30.5q0 -9 -2.5 -23t-7.5 -32l68 -20q6 11 16.5 22.5t25.5 23.5q9 3 16 4.5t11 1.5q24 0 48 -17t24 -36q0 -15 -10 -29t-33 -32q-64 -106 -96.5 -201t-32.5 -170 q0 -24 8 -39.5t20 -15.5q31 0 71.5 48t84.5 138q5 10 13 27q20 45 34 45q13 0 25 -11t12 -24q0 -15 -17 -51t-47 -84q-63 -102 -105.5 -138t-92.5 -36q-57 0 -89 35.5t-32 97.5t20.5 143.5t63.5 187.5l-55 17q-52 -144 -88 -206t-66 -62q-12 0 -19.5 8t-7.5 22z" />
<glyph unicode="s" horiz-adv-x="342" d="M-197 33q0 4 20 31q176 246 247 569q0 4 1 12t1 10q0 26 12 41t33 15q25 0 62.5 -22.5t37.5 -37.5q0 -1 -7 -10q-81 -101 -81 -252q0 -75 30.5 -192t30.5 -160q0 -56 -30.5 -95.5t-65.5 -39.5q-33 0 -100.5 51t-102.5 65l-18 -12q-35 -24 -45 -24q-14 0 -19.5 11t-5.5 40 zM-63 86q33 -15 70 -29t77 -26q0 27 -18.5 113t-26.5 147q-15 -46 -40 -96.5t-62 -108.5z" />
<glyph unicode="t" horiz-adv-x="303" d="M-160 817q0 23 50 35t245 27q33 105 53 133t52 28q26 0 43.5 -11t17.5 -28l-17 -37q-16 -38 -26 -79q51 4 97.5 6t84.5 2q94 0 132 -14t38 -48q0 -12 -12 -17t-53 -5q-46 0 -155.5 -9.5t-166.5 -13.5q-81 -215 -128.5 -398t-47.5 -267q0 -28 9.5 -44t25.5 -16q25 0 58 33 t69 94q26 45 50.5 103.5t33.5 58.5q19 0 34 -12t15 -27q0 -21 -37 -94.5t-92 -146.5q-32 -44 -72 -67t-84 -23q-50 0 -80 43.5t-30 117.5q0 88 38 250.5t109 380.5q-55 -4 -99 -6t-65 -2q-43 0 -66.5 14t-23.5 39z" />
<glyph unicode="u" horiz-adv-x="559" d="M-61 119q0 86 35.5 212t93.5 234q12 24 26.5 34.5t32.5 10.5q28 0 48 -20.5t20 -46.5q0 -7 -4 -15t-13 -18q-62 -128 -96.5 -233t-34.5 -162q0 -30 8 -43t27 -13q40 0 98.5 110.5t145.5 348.5q4 37 22 58.5t45 21.5t51.5 -21t24.5 -45q0 -6 -22 -51q-107 -219 -107 -377 q0 -25 5 -40t13 -15q32 0 69.5 51t84.5 158q2 5 5 12q13 31 30 31q10 0 27.5 -14.5t17.5 -24.5q0 -14 -32.5 -82t-74.5 -125q-33 -46 -66 -67t-73 -21q-50 0 -81.5 40t-31.5 106q0 7 2 23t5 36q-46 -94 -92 -141t-91 -47q-24 0 -43 9t-37 30q-21 21 -29.5 43t-8.5 53z" />
<glyph unicode="v" horiz-adv-x="436" d="M-47 117q0 189 36.5 323.5t80.5 134.5q24 0 55 -21t31 -38q0 -10 -8 -22t-25 -29q-26 -63 -41.5 -160t-20.5 -221q178 372 254 487t129 115q31 0 44.5 -6t13.5 -21q0 -7 -28 -37q-4 -4 -7 -8q-102 -158 -186.5 -305.5t-143.5 -269.5q-18 -39 -41 -51.5t-67 -12.5 q-49 0 -62.5 20.5t-13.5 121.5z" />
<glyph unicode="w" horiz-adv-x="692" d="M-76 88q0 64 23.5 158.5t64.5 189.5q25 60 42.5 79.5t39.5 19.5q25 0 47.5 -19.5t28.5 -46.5q-9 -15 -18.5 -27.5t-18.5 -21.5q-44 -104 -70 -200t-26 -144q0 -14 3 -21.5t9 -7.5q26 0 70 81.5t162 363.5q6 6 11.5 9t10.5 3q33 0 62.5 -17.5t29.5 -35.5q0 -3 -8 -20 q-74 -140 -74 -294q0 -18 3.5 -27t11.5 -10q36 0 96.5 136t103.5 333q-2 13 -12 30.5t-10 25.5q0 10 11 17t28 7q30 0 55 -22.5t25 -46.5q0 -47 -35.5 -174.5t-87.5 -235.5q-47 -96 -88 -138t-86 -42q-10 0 -21 3t-34 15q-31 5 -46.5 37t-15.5 92q-37 -90 -82.5 -141 t-87.5 -51q-43 0 -80 42t-37 101z" />
<glyph unicode="x" horiz-adv-x="508" d="M-119 -49q0 22 39.5 79.5t149.5 190.5q-20 70 -30.5 124t-10.5 79q0 50 40.5 87.5t73.5 37.5q30 0 39 -96q5 -57 11 -92q157 173 213 222.5t86 49.5q19 0 34 -12t15 -25q0 -14 -15.5 -30t-52.5 -40q-44 -39 -107.5 -112t-148.5 -183q15 -79 39 -127.5t45 -48.5 q15 0 53.5 48t77.5 120q10 18 25 48q25 51 37 51t32.5 -18.5t20.5 -29.5q0 -14 -35 -84.5t-80 -130.5q-35 -47 -75 -70.5t-85 -23.5q-57 0 -92 31.5t-70 113.5q-10 -13 -33 -42q-76 -96 -118 -152q-8 -3 -14.5 -4.5t-12.5 -1.5q-20 0 -35.5 13t-15.5 28z" />
<glyph unicode="y" horiz-adv-x="487" d="M-250 -213q0 27 10.5 38t34.5 11q23 0 33 -49q5 -24 8 -36q31 -27 72 -40.5t90 -13.5q10 0 21 0.5t34 3.5q48 24 106 341q15 82 23 128q-35 -69 -75.5 -107t-75.5 -38q-15 0 -25 6t-18 20q-22 17 -32.5 44t-10.5 65q0 145 56.5 287.5t111.5 142.5q25 0 50 -17.5t25 -35.5 q0 -9 -5.5 -15.5t-18.5 -11.5q-51 -104 -81 -205.5t-30 -157.5q0 -9 3.5 -14.5t9.5 -5.5q27 0 103.5 127t127.5 282q4 14 9 42q13 71 71 71q29 0 48 -11.5t24 -31.5q6 -6 9 -13t3 -15q0 -11 -7 -20t-21 -17q-109 -199 -152.5 -460.5t-45.5 -267.5q-23 -84 -107 -142 t-171 -58q-51 0 -88.5 22.5t-77.5 75.5q-21 15 -31 33.5t-10 42.5z" />
<glyph unicode="z" horiz-adv-x="559" d="M-51 66q0 32 119.5 156.5t342.5 323.5q-73 -7 -162.5 -19.5t-105.5 -12.5q-17 0 -30 16.5t-17 44.5q119 38 210 56t161 18q35 0 60.5 -22t25.5 -49q0 -33 -167.5 -190.5t-288.5 -288.5q38 6 100 19q76 15 94 15q35 0 56.5 -14.5t21.5 -38.5q0 -13 -5 -19.5t-22 -9.5 q-56 -8 -154 -44t-133 -36q-37 0 -71.5 33.5t-34.5 61.5z" />
<glyph unicode="{" d="M172 467v127q8 0 23 -1t22 -1q134 0 189 61.5t55 214.5v244q0 153 22.5 215.5t77.5 97.5q42 28 102 40t160 12h35v-127q-8 0 -23 1t-22 1q-121 0 -164 -47t-43 -197v-242q0 -166 -43.5 -235.5t-154.5 -100.5q111 -30 154.5 -99.5t43.5 -235.5v-242q0 -149 43.5 -195.5 t169.5 -46.5h39v-125h-35q-99 0 -159.5 12t-102.5 40q-55 36 -77.5 100t-22.5 213v244q0 152 -55 213t-189 61q-7 0 -22 -1t-23 -1z" />
<glyph unicode="|" d="M449 -483v2048h126v-2048h-126z" />
<glyph unicode="}" d="M166 -289q8 0 23 -1t22 -1q120 0 163.5 47.5t43.5 198.5v240q0 166 43.5 235.5t154.5 99.5q-111 31 -154.5 100.5t-43.5 235.5v242q0 149 -44 196.5t-169 47.5h-39v125h35q100 0 161 -12.5t103 -39.5q54 -35 76 -98t22 -215v-244q0 -152 55.5 -214t190.5 -62q7 0 22 1 t23 1v-127q-8 0 -23 1t-22 1q-135 0 -190.5 -62t-55.5 -214v-242q0 -153 -22 -216.5t-76 -99.5q-39 -26 -97.5 -37.5t-160.5 -11.5h-41v125z" />
<glyph unicode="~" horiz-adv-x="1706" d="M178 461v133q105 73 202 109t185 36q56 0 116.5 -12.5t174.5 -52.5q14 -5 44 -16q158 -58 245 -58q84 0 174.5 37t210.5 121v-131q-101 -72 -197.5 -108t-189.5 -36q-43 0 -90.5 9t-100.5 26q-30 10 -87 31q-202 72 -302 72q-83 0 -173.5 -37.5t-211.5 -122.5z" />
<glyph unicode="&#xa1;" horiz-adv-x="522" d="M25 45q0 8 18 37q5 7 8 12q36 99 117 341t178 544q2 43 16 58.5t52 15.5q29 0 42 -7t13 -22q0 -72 -65.5 -335.5t-167.5 -538.5q-3 -7 -7 -17q-57 -151 -123 -151q-31 0 -56 20.5t-25 42.5zM387 1212q0 50 33 88.5t78 38.5q43 0 67.5 -17t24.5 -48q0 -52 -48.5 -98 t-95.5 -46q-28 0 -43.5 21.5t-15.5 60.5z" />
<glyph unicode="&#xa2;" horiz-adv-x="1014" d="M158 434q0 43 12 93.5t35 105.5q51 119 108 209.5t121 152.5q29 28 53 38.5t52 10.5h6q19 56 49 148q72 219 129 219q21 0 31 -5.5t10 -16.5q0 -10 -2 -18.5t-6 -16.5q-19 -70 -47 -151t-68 -179l29 -25q49 -24 69.5 -48.5t20.5 -57.5q0 -73 -37.5 -132t-89.5 -59 q-30 0 -48 13.5t-18 36.5q0 34 27 93.5t27 61.5q-1 4 -6 11q-1 1 -2 3q-7 1 -11 3q-25 0 -51 -20t-68 -73q-81 -103 -137.5 -238t-56.5 -214q0 -44 22.5 -67t65.5 -23q99 0 196 96q25 25 31 25q8 0 25.5 -17t17.5 -24q0 -46 -81.5 -98t-182.5 -52h-4q-35 -101 -75 -243 q-44 -154 -79 -154q-32 0 -43.5 8t-11.5 31q0 37 30 141t81 234q-64 28 -93.5 76t-29.5 122z" />
<glyph unicode="&#xa3;" horiz-adv-x="1014" d="M-94 109q0 50 52.5 106.5t117.5 56.5q26 0 66.5 -8t90.5 -24q18 44 31.5 96.5t26.5 124.5h-37h-25q-111 0 -141.5 12t-30.5 43q0 24 40.5 33.5t213.5 13.5q46 334 152 531.5t231 197.5q31 0 67 -14t77 -43q78 -22 125 -68t47 -100q0 -39 -25 -67.5t-55 -28.5 q-21 0 -38.5 20t-17.5 45q0 8 5.5 26.5t5.5 29.5q0 30 -33.5 51.5t-83.5 21.5q-105 0 -171.5 -123t-137.5 -477q168 0 221 -15.5t53 -55.5q0 -10 -8 -15.5t-23 -5.5q-11 0 -30.5 2t-28.5 2q-24 0 -92.5 -2.5t-112.5 -3.5q-21 -85 -45.5 -149.5t-52.5 -114.5q111 -33 238 -78 t143 -45q19 0 51 24.5t49 24.5q18 0 30.5 -8.5t12.5 -20.5q0 -11 -22.5 -55t-44.5 -67q-16 -16 -32.5 -22.5t-41.5 -6.5q-30 0 -378 129l-64 24q-69 -83 -110 -114t-77 -31q-66 0 -127 48t-61 100zM-33 139q0 -27 52.5 -66.5t82.5 -39.5q21 0 43 26t50 82q-56 25 -94.5 37 t-59.5 12q-26 0 -50 -18t-24 -33z" />
<glyph unicode="&#xa4;" horiz-adv-x="1014" d="M37 551q0 16 37.5 23t136.5 10q3 11 21 56q8 19 12 28q8 19 16.5 38.5t15.5 34.5q-37 -1 -60.5 -1.5t-41.5 -0.5q-34 0 -49.5 15t-15.5 47q0 16 47.5 22.5t167.5 8.5q17 32 36.5 65.5t40.5 65.5q91 135 192 227t157 92q31 0 68 -14.5t77 -42.5q78 -22 124 -68t46 -100 q0 -39 -24 -67.5t-54 -28.5q-25 0 -38 20t-21 83q-4 26 -29 43t-59 17q-52 0 -109.5 -34.5t-118.5 -102.5q-33 -37 -62 -75.5t-52 -77.5l22 2h10q140 0 234 -17t102 -47v-6q0 -5 -1.5 -10t-6.5 -15q-37 1 -75 1.5t-113 0.5h-160l-64 -2q-13 -20 -36.5 -71.5t-34.5 -83.5h69 q125 0 203 -16.5t86 -47.5v-6q0 -5 -1.5 -9.5t-7.5 -14.5q-42 1 -68 1.5t-87 0.5h-225q-16 -44 -28.5 -109.5t-12.5 -112.5q0 -100 50 -156.5t136 -56.5q56 0 117.5 21t134.5 65q33 20 86 59.5t74 39.5q8 0 14.5 -8.5t6.5 -20.5q0 -22 -27 -55t-76 -72q-78 -62 -158 -96.5 t-145 -34.5q-165 0 -261.5 86.5t-96.5 232.5q0 57 9.5 120.5t20.5 95.5q-44 -1 -74 -2q-9 -1 -12 -1q-34 0 -49.5 15t-15.5 47z" />
<glyph unicode="&#xa5;" horiz-adv-x="1014" d="M80 602q0 16 70 23.5t235 9.5l-31 135h-161q-35 0 -50.5 15t-15.5 46q0 8 9 12t32 7q39 7 135 9q23 1 35 1q-19 108 -29 186.5t-10 114.5q0 39 19.5 59.5t56.5 20.5q71 0 97 -282q18 -194 36 -324q196 306 354 502t201 196q19 0 34 -19t15 -40q0 -11 -114 -152t-205 -262 q9 -1 25 -3q173 -20 173 -56q0 -9 -2 -16.5t-6 -14.5q-86 2 -254 6l-102 -141q211 -10 264 -22.5t53 -39.5q0 -8 -2 -15.5t-6 -14.5q-37 1 -79 1.5t-124 0.5h-166q-76 -184 -121.5 -373.5t-89.5 -189.5q-31 0 -53 26t-22 64t35 170.5t92 294.5l-2 6h-58q-89 0 -181 -2h-22 q-34 0 -49.5 14.5t-15.5 46.5z" />
<glyph unicode="&#xa6;" d="M449 -350v758h126v-758h-126zM449 674v758h126v-758h-126z" />
<glyph unicode="&#xa7;" d="M10 -68q0 27 17 50.5t34 23.5q18 0 34 -35q5 -11 8 -17q35 -75 102 -118t149 -43q87 0 145 55.5t58 133.5q0 85 -163 210q-19 15 -29 23q-115 89 -157 153t-42 142q0 98 51.5 166t157.5 110q-42 53 -63 107t-21 108q0 120 89.5 207.5t211.5 87.5q65 0 130.5 -28 t119.5 -80q37 -36 60.5 -76.5t23.5 -67.5q0 -28 -19 -49.5t-41 -21.5q-14 0 -32 41t-35 63q-37 46 -92 73.5t-109 27.5q-75 0 -127.5 -49.5t-52.5 -118.5q0 -53 40 -107t152 -143q141 -112 179 -171.5t38 -129.5q0 -85 -55.5 -150t-175.5 -119q41 -44 63.5 -93t22.5 -95 q0 -130 -95 -228t-225 -98q-127 0 -239.5 89.5t-112.5 166.5zM268 563q0 -90 215 -265q49 -40 76 -62q83 36 121.5 78t38.5 96q0 92 -288 311l-21 16q-70 -30 -106 -74t-36 -100z" />
<glyph unicode="&#xa8;" d="M342 797q0 41 28 73.5t62 32.5q25 0 38 -14.5t13 -40.5q0 -42 -27.5 -74.5t-64.5 -32.5q-21 0 -35 16t-14 40zM563 797q0 41 28 73.5t62 32.5q25 0 39.5 -14.5t14.5 -40.5q0 -42 -29 -74.5t-66 -32.5q-20 0 -34.5 16t-14.5 40z" />
<glyph unicode="&#xa9;" horiz-adv-x="1706" d="M119 725q0 145 56.5 279.5t162.5 242.5q102 104 234 158.5t280 54.5q151 0 285 -55t239 -160q102 -102 156.5 -236t54.5 -284q0 -151 -54 -283t-157 -233q-109 -106 -244.5 -162.5t-279.5 -56.5q-146 0 -278 55.5t-238 161.5q-106 105 -161.5 238.5t-55.5 279.5zM207 725 q0 -127 49 -244t141 -211q93 -92 209.5 -141t245.5 -49t248.5 50t214.5 142q91 90 138.5 205.5t47.5 247.5q0 130 -49 249t-139 210q-92 92 -210 140t-251 48q-132 0 -247.5 -47.5t-205.5 -138.5q-93 -95 -142.5 -214t-49.5 -247zM465 721q0 208 107.5 332.5t287.5 124.5 q137 0 230 -74.5t104 -192.5h-129q-15 77 -70.5 120.5t-138.5 43.5q-117 0 -182.5 -92.5t-65.5 -259.5q0 -160 66.5 -252t181.5 -92q87 0 145.5 48.5t73.5 133.5h129q-11 -127 -109 -207t-245 -80q-176 0 -280.5 121t-104.5 326z" />
<glyph unicode="&#xaa;" horiz-adv-x="403" d="M-88 987q0 51 20.5 108.5t59.5 118.5q38 65 83 102.5t83 37.5q21 0 38 -9.5t35 -31.5q2 0 5 1q24 7 36 7q27 0 44.5 -11.5t17.5 -27.5q0 -8 -18 -42t-29 -58q-28 -58 -45 -106t-17 -68q0 -11 3 -15t10 -4q11 0 32 21.5t70 85.5q9 12 21 30t18 19q8 0 16 -11t8 -20 q0 -11 -23.5 -51t-57.5 -82q-28 -33 -50 -46t-47 -13q-32 0 -49.5 22t-17.5 62v28q-37 -63 -81 -98t-87 -35q-34 0 -56 24t-22 62zM-10 977q0 -9 3 -12.5t11 -3.5q15 0 42.5 24t55.5 64q44 60 74.5 125t30.5 81q0 10 -6.5 16.5t-16.5 6.5q-25 0 -57.5 -32t-67.5 -91 q-31 -57 -50 -106t-19 -72z" />
<glyph unicode="&#xab;" horiz-adv-x="606" d="M59 281q0 14 32 55.5t89 101.5q9 10 21 24q17 19 22 19q22 0 47 -10.5t25 -24.5q0 -8 -25 -38t-114 -125q13 -51 37 -100.5t24 -53.5q0 -16 -21 -27.5t-51 -11.5q-13 0 -49.5 75.5t-36.5 115.5zM258 281q0 14 31.5 55.5t89.5 101.5q8 9 21 24q16 19 22 19q22 0 47 -10.5 t25 -24.5q0 -8 -25 -38t-115 -125q14 -52 39 -101t25 -53q0 -16 -21 -27.5t-51 -11.5q-13 0 -50.5 75.5t-37.5 115.5z" />
<glyph unicode="&#xac;" horiz-adv-x="1706" d="M254 741v117h1198v-502h-115v385h-1083z" />
<glyph unicode="&#xad;" horiz-adv-x="702" d="M84 332q37 14 118.5 22t184.5 8q92 0 125 -19t33 -67q-1 -19 -8 -26t-27 -10q-101 -12 -198 -18.5t-144 -6.5q-59 0 -71.5 17t-12.5 100z" />
<glyph unicode="&#xae;" horiz-adv-x="1706" d="M119 725q0 147 57 282t164 242q101 103 232 157t280 54q150 0 284 -55.5t240 -161.5q102 -102 156.5 -235.5t54.5 -282.5q0 -151 -54.5 -283t-158.5 -233q-109 -106 -243.5 -162.5t-278.5 -56.5q-145 0 -278.5 56t-239.5 163q-105 104 -160 237t-55 279zM207 725 q0 -127 49 -244t141 -211q91 -92 208 -141t245 -49q131 0 249.5 48.5t213.5 141.5q91 90 139.5 206t48.5 245q0 133 -48 251.5t-138 209.5q-94 93 -211.5 141.5t-251.5 48.5q-132 0 -247 -47t-204 -137q-94 -95 -144 -214t-50 -249zM561 317v840h311q178 0 264.5 -57 t86.5 -174q0 -89 -53 -148.5t-144 -75.5l188 -385h-157l-176 365h-179v-365h-141zM702 774h148q123 0 175 33t52 108q0 79 -54.5 114.5t-176.5 35.5h-144v-291z" />
<glyph unicode="&#xaf;" d="M352 784v4l10 57q2 10 7.5 14.5t17.5 4.5h295q10 0 12 -2t2 -8v-8l-10 -56q-2 -11 -7.5 -15.5t-16.5 -4.5h-304q-2 0 -4 4.5t-2 9.5z" />
<glyph unicode="&#xb0;" horiz-adv-x="674" d="M55 1171q0 119 82.5 201t200.5 82q117 0 200 -83t83 -200q0 -116 -83.5 -199t-201.5 -83t-199.5 82t-81.5 200zM135 1171q0 -84 59.5 -143t143.5 -59t142.5 59t58.5 143t-58.5 142.5t-142.5 58.5t-143.5 -58.5t-59.5 -142.5z" />
<glyph unicode="&#xb1;" horiz-adv-x="1706" d="M254 41v117h1198v-117h-1198zM254 719v117h541v344h118v-344h539v-117h-539v-344h-118v344h-541z" />
<glyph unicode="&#xb2;" horiz-adv-x="670" d="M6 547q0 20 38 27q34 6 60 14q69 27 157.5 110t191.5 217q48 63 76 120.5t28 88.5q0 17 -11.5 27t-31.5 10q-27 0 -64.5 -17.5t-80.5 -49.5q-66 -50 -118.5 -101t-84.5 -94q-8 -9 -20 -24q-19 -25 -31 -25q-17 0 -32 15.5t-15 29.5t33 61.5t85 106.5q87 97 160 148 t125 51q29 0 53.5 -14.5t30.5 -35.5q53 -18 80 -46.5t27 -65.5q0 -86 -123 -234t-316 -278q13 0 61.5 3t75.5 3q84 0 111 -10t27 -39q0 -15 -8 -23.5t-28 -13.5q-13 1 -31.5 1.5t-57.5 0.5q-125 0 -277 -24q-40 -7 -49 -7q-19 0 -30 19t-11 49z" />
<glyph unicode="&#xb3;" horiz-adv-x="670" d="M-8 578q0 22 16.5 42.5t32.5 20.5q19 0 34 -37q6 -16 11 -24q9 -20 26 -30.5t38 -10.5q20 0 71 19.5t107 51.5q54 31 83 61t29 54q0 37 -36.5 56.5t-106.5 19.5q-44 0 -89 -2h-9q-11 0 -14.5 4t-4.5 16q0 56 92 67q5 0 9 1q45 10 104 35.5t104 56.5q50 35 77.5 69 t27.5 60q0 22 -17.5 32.5t-52.5 10.5q-59 0 -149.5 -36t-175.5 -95q-17 -11 -37 -27t-25 -16q-13 0 -25 9.5t-12 21.5q0 13 32 45t83 67q84 59 165.5 94t129.5 35q25 0 44.5 -12t27.5 -33q50 -21 75 -50t25 -67q0 -59 -74 -120t-209 -111q62 -17 97 -54t37 -86q1 -4 1.5 -8 t0.5 -14q0 -34 -33.5 -74t-91.5 -73q-68 -40 -130 -60t-116 -20q-72 0 -122 33.5t-50 77.5z" />
<glyph unicode="&#xb4;" d="M410 739q0 2 3 5t5 6l6 8q18 18 51.5 66t59.5 98l4 8q6 13 14.5 18.5t19.5 5.5h99q9 0 13.5 -3t4.5 -9q0 -3 -1.5 -6t-4.5 -6l-8 -10q-39 -48 -85 -97t-71 -69l-8 -9q-11 -9 -21 -13.5t-20 -4.5h-45q-9 0 -12.5 3t-3.5 9z" />
<glyph unicode="&#xb5;" horiz-adv-x="1128" d="M-111 -426l316 1495h157l-126 -595q-8 -33 -11.5 -67t-3.5 -71q0 -109 57 -168t160 -59q125 0 208 101t128 308l121 551h156l-162 -754q-12 -52 -17.5 -84t-5.5 -51q0 -32 18.5 -48.5t53.5 -16.5q9 0 17.5 0.5t17.5 1.5l-27 -125q-21 -5 -44 -7.5t-48 -2.5 q-70 0 -104.5 35t-40.5 112q-41 -70 -117 -108.5t-172 -38.5q-87 0 -152.5 34t-109.5 103l-113 -545h-156z" />
<glyph unicode="&#xb6;" d="M76 1130q0 157 107.5 253t285.5 96h479v-78h-125v-1401h-94v1401h-182v-1401h-96v782q-173 8 -274 102.5t-101 245.5z" />
<glyph unicode="&#xb7;" horiz-adv-x="508" d="M150 610q0 43 30.5 74t73.5 31t73.5 -31t30.5 -74q0 -42 -31 -72t-73 -30t-73 30t-31 72z" />
<glyph unicode="&#xb8;" d="M170 -307l14 31l1 1q4 8 12 9l44.5 -13.5t90.5 -13.5q33 0 55.5 18t22.5 44q0 29 -20 45t-58 16q-5 0 -17.5 -1t-21.5 -1q-6 0 -9 2.5t-3 5.5q0 6 1 11t3 10l43 143h67l-35 -117h19q62 0 94.5 -30.5t32.5 -88.5q0 -59 -43.5 -92.5t-120.5 -33.5q-65 0 -118.5 14t-53.5 31 v6v4z" />
<glyph unicode="&#xb9;" horiz-adv-x="356" d="M-86 535q0 28 110 40q13 2 19 3q19 82 72 235t132 352q-11 -1 -22.5 -1.5t-27.5 -0.5q-32 0 -45 6.5t-13 20.5q0 33 44.5 47t150.5 14q27 0 43 -9.5t16 -24.5q0 -8 -31 -75q-130 -277 -221 -556h6q32 0 53 -11t21 -26q0 -26 -49 -34l-18 -3q-51 -7 -115.5 -17t-69.5 -10 q-21 0 -38 14.5t-17 35.5z" />
<glyph unicode="&#xba;" horiz-adv-x="354" d="M-66 1001q0 47 25.5 113.5t67.5 126.5q23 35 46 52.5t46 17.5q14 0 26 -6.5t19 -18.5q4 0 12.5 1t13.5 1q33 0 52.5 -29.5t21.5 -82.5q40 11 73 49.5t42 38.5q12 0 18 -5t6 -16t-6 -22t-20 -25q-28 -38 -58.5 -59.5t-64.5 -26.5q-34 -111 -86.5 -168t-120.5 -57 q-51 0 -82 31.5t-31 84.5zM25 995q0 -23 8 -34t24 -11q40 0 85.5 82t45.5 158q0 18 -7 28.5t-19 10.5q-39 0 -88 -80.5t-49 -153.5z" />
<glyph unicode="&#xbb;" horiz-adv-x="606" d="M33 123q0 18 106 130l33 36q-14 51 -38.5 100.5t-24.5 52.5q0 16 20.5 27.5t50.5 11.5q13 0 50.5 -76.5t37.5 -117.5q0 -11 -33.5 -54t-87.5 -100q-7 -8 -19 -21q-18 -22 -26 -22q-18 0 -43.5 11t-25.5 22zM231 123q0 18 106 130l34 36q-14 51 -38 100t-24 53 q0 16 21 27.5t51 11.5q13 0 49.5 -76.5t36.5 -117.5q0 -11 -33.5 -54t-87.5 -100q-8 -8 -19 -21q-19 -22 -26 -22q-19 0 -44.5 11t-25.5 22z" />
<glyph unicode="&#xbc;" horiz-adv-x="1321" d="M-82 582q0 25 92 35q20 2 31 4q16 72 65.5 211.5t128.5 336.5q-10 -1 -21 -1.5t-26 -0.5q-29 0 -42 6t-13 19q0 31 43.5 44t142.5 13q24 0 40 -9t16 -21q0 -8 -32 -76q-123 -260 -208 -514h6q30 0 50 -10.5t20 -24.5q0 -25 -48 -31q-9 -1 -16 -2q-52 -8 -112.5 -17 t-63.5 -9q-20 0 -36.5 14t-16.5 33zM41 10q0 15 127.5 202.5t333.5 475.5q238 332 361.5 481.5t160.5 149.5q19 0 31 -15.5t12 -39.5q0 -15 -6 -25t-19 -18q-333 -401 -631 -835.5t-321 -434.5q-19 0 -34 19.5t-15 39.5zM684 184q0 26 72.5 106t318.5 316q52 51 93.5 81 t58.5 30q36 0 64 -11.5t28 -23.5q0 -2 -13 -30q-93 -197 -176 -431q3 0 11 -1t12 -1q53 0 74.5 -11t21.5 -38q0 -4 -2 -9.5t-2 -6.5q-10 1 -20 1.5t-29 0.5q-28 0 -49.5 -1t-44.5 -3q-20 -47 -41 -111q-20 -64 -43 -64q-20 0 -31.5 10.5t-11.5 28.5q0 16 7 44t25 89 q-94 -2 -184.5 -11t-91.5 -9q-21 0 -34 15.5t-13 39.5zM781 207q62 5 124.5 8.5t128.5 5.5q35 84 89 221.5t77 192.5q-122 -119 -228 -227.5t-191 -200.5z" />
<glyph unicode="&#xbd;" horiz-adv-x="1321" d="M-82 582q0 25 92 35q20 2 31 4q16 72 65.5 211.5t128.5 336.5q-10 -1 -21 -1.5t-26 -0.5q-29 0 -42 6t-13 19q0 31 43.5 44t142.5 13q24 0 40 -9t16 -21q0 -8 -32 -76q-123 -260 -208 -514h6q30 0 50 -10.5t20 -24.5q0 -25 -48 -31q-9 -1 -16 -2q-52 -8 -112.5 -17 t-63.5 -9q-20 0 -36.5 14t-16.5 33zM41 10q0 15 127.5 202.5t333.5 475.5q238 332 361.5 481.5t160.5 149.5q19 0 31 -15.5t12 -39.5q0 -15 -6 -25t-19 -18q-333 -401 -631 -835.5t-321 -434.5q-19 0 -34 19.5t-15 39.5zM688 53q0 19 37 26q34 7 57 13q67 27 153 106 t179 199q47 59 73.5 112t26.5 83q0 16 -10.5 25.5t-29.5 9.5q-27 0 -64 -16.5t-78 -45.5q-59 -45 -109 -92.5t-84 -90.5q-6 -7 -15 -19q-19 -25 -31 -25q-17 0 -31 13.5t-14 27.5q0 13 30.5 56t81.5 100q82 90 151.5 138t118.5 48q29 0 52.5 -13t30.5 -32q49 -17 75.5 -44.5 t26.5 -62.5q0 -79 -117.5 -217.5t-302.5 -259.5q13 1 58 3.5t73 2.5q79 0 105 -9.5t26 -37.5q0 -14 -8.5 -22t-26.5 -13q-27 3 -46 3.5t-38 0.5q-119 0 -263 -22q-39 -6 -48 -6q-18 0 -28.5 16.5t-10.5 44.5z" />
<glyph unicode="&#xbe;" horiz-adv-x="1620" d="M-8 621q0 21 16 40t31 19q19 0 31 -32q7 -17 12 -25q9 -19 25 -29t36 -10q21 0 69 18.5t99 48.5q54 30 81.5 57.5t27.5 51.5q0 34 -34.5 51.5t-100.5 17.5q-46 0 -88 -1q-6 -1 -7 -1q-11 1 -14.5 5t-3.5 16q0 50 85 60q9 1 11 1q39 7 96.5 31.5t102.5 54.5q47 33 73.5 65 t26.5 56q0 20 -16.5 29.5t-50.5 9.5q-57 0 -143 -33t-167 -88q-16 -11 -35 -26t-24 -15q-11 0 -23 9.5t-12 19.5q0 12 30.5 42t78.5 62q81 56 159.5 89.5t122.5 33.5q23 0 42 -11.5t29 -31.5q46 -20 69.5 -47.5t23.5 -60.5q0 -56 -70.5 -113t-199.5 -104q59 -16 93 -50.5 t34 -78.5q1 -5 1.5 -9t0.5 -12q0 -32 -31.5 -69.5t-87.5 -69.5q-66 -38 -125.5 -57t-109.5 -19q-68 0 -116 32.5t-48 72.5zM340 10q0 15 127.5 202.5t333.5 475.5q238 332 361.5 481.5t160.5 149.5q19 0 31 -15.5t12 -39.5q0 -15 -6 -25t-19 -18q-333 -401 -631 -835.5 t-321 -434.5q-19 0 -34 19.5t-15 39.5zM983 184q0 26 72.5 106t318.5 316q52 51 93.5 81t58.5 30q36 0 64 -11.5t28 -23.5q0 -2 -13 -30q-93 -197 -175 -431q2 0 10 -1t12 -1q53 0 74.5 -11t21.5 -38q0 -4 -2 -9.5t-2 -6.5q-10 1 -20 1.5t-29 0.5q-28 0 -49.5 -1t-44.5 -3 q-20 -47 -41 -111q-20 -64 -43 -64q-20 0 -31.5 10.5t-11.5 28.5q0 16 7 44t25 89q-94 -2 -184.5 -11t-91.5 -9q-21 0 -34 15.5t-13 39.5zM1080 207q62 5 124.5 8.5t128.5 5.5q35 84 89 221.5t77 192.5q-122 -119 -228 -227.5t-191 -200.5z" />
<glyph unicode="&#xbf;" horiz-adv-x="973" d="M96 274q0 127 286 466q149 177 235 286q10 5 21 7.5t32 2.5q33 0 45 -7.5t12 -27.5q0 -27 -131 -206q-63 -85 -100 -138q-13 -17 -36 -50q-198 -275 -198 -380q0 -43 22 -66.5t62 -23.5q79 0 189 77.5t200 201.5q40 -29 54 -48.5t14 -41.5q0 -29 -25 -66t-78 -86 q-103 -99 -182.5 -151t-126.5 -52q-45 0 -74 22.5t-51 74.5q-90 39 -130 87.5t-40 118.5zM631 1188q0 48 50 97.5t105 49.5q37 0 58.5 -19.5t21.5 -53.5q0 -46 -51.5 -99t-101.5 -53q-33 0 -57.5 24t-24.5 54z" />
<glyph unicode="&#xc0;" horiz-adv-x="920" d="M-76 2q0 65 133.5 347.5t339.5 633.5h1q171 293 284 293q23 0 54.5 -12t42.5 -15q35 -9 48 -20t13 -29q0 -15 -18.5 -45t-24.5 -51q-24 -71 -49 -332.5t-25 -554.5q0 -35 2 -77.5t2 -49.5q0 -37 -20.5 -57.5t-57.5 -20.5q-65 1 -68 235q-1 45 -2 68q-102 -8 -209.5 -23 t-217.5 -36q-25 -51 -58 -137q-59 -158 -135 -158q-15 0 -25 11.5t-10 29.5zM230 416q94 9 182 14.5t167 7.5q9 208 23.5 380t36.5 315q-159 -237 -408 -714zM564 1606q0 7 3.5 9.5t14.5 2.5h94q9 0 16 -6.5t11 -20.5l2 -7q14 -48 34 -94t38 -72l6 -7q2 -3 3 -6t1 -6 q0 -4 -4 -6t-13 -2h-43q-9 0 -18.5 5.5t-15.5 15.5l-4 7q-6 9 -50 67.5t-67 101.5l-6 10q-2 4 -2 8z" />
<glyph unicode="&#xc1;" horiz-adv-x="920" d="M-76 2q0 65 133.5 347.5t339.5 633.5h1q171 293 284 293q23 0 54.5 -12t42.5 -15q35 -9 48 -20t13 -29q0 -15 -18.5 -45t-24.5 -51q-24 -71 -49 -332.5t-25 -554.5q0 -35 2 -77.5t2 -49.5q0 -37 -20.5 -57.5t-57.5 -20.5q-65 1 -68 235q-1 45 -2 68q-102 -8 -209.5 -23 t-217.5 -36q-25 -51 -58 -137q-59 -158 -135 -158q-15 0 -25 11.5t-10 29.5zM230 416q94 9 182 14.5t167 7.5q9 208 23.5 380t36.5 315q-159 -237 -408 -714zM607 1403q0 2 3 5t5 6l6 8q18 18 51.5 66t59.5 98l4 8q6 13 14.5 18.5t19.5 5.5h99q9 0 13.5 -3t4.5 -9 q0 -3 -1.5 -6t-4.5 -6l-8 -10q-39 -48 -85 -97t-71 -69l-8 -9q-11 -9 -21 -13.5t-20 -4.5h-45q-9 0 -12.5 3t-3.5 9z" />
<glyph unicode="&#xc2;" horiz-adv-x="920" d="M-76 2q0 65 133.5 347.5t339.5 633.5h1q171 293 284 293q23 0 54.5 -12t42.5 -15q35 -9 48 -20t13 -29q0 -15 -18.5 -45t-24.5 -51q-24 -71 -49 -332.5t-25 -554.5q0 -35 2 -77.5t2 -49.5q0 -37 -20.5 -57.5t-57.5 -20.5q-65 1 -68 235q-1 45 -2 68q-102 -8 -209.5 -23 t-217.5 -36q-25 -51 -58 -137q-59 -158 -135 -158q-15 0 -25 11.5t-10 29.5zM230 416q94 9 182 14.5t167 7.5q9 208 23.5 380t36.5 315q-159 -237 -408 -714zM519 1459q0 3 2.5 8t7.5 8l4 4q12 8 46.5 43.5t66.5 75.5l2 7q5 7 11.5 11t14.5 4h10h91q10 0 18 -4.5t20 -21.5 l5 -4q20 -31 40.5 -68.5t28.5 -58.5l4 -6q3 -6 4.5 -12t1.5 -11t-2 -7.5t-10 -6.5l-43 -21q-1 0 -4 -1q-8 -3 -10 -3q-12 1 -22 21l-1 2l-2 6q-1 2 -5 9q-38 72 -73 118q-48 -54 -84 -91.5t-45 -43.5l-3 -2q-3 -2 -9 -8.5t-10 -6.5q-5 0 -7.5 1t-7.5 5l-34 39q-3 3 -4.5 6.5 t-1.5 8.5z" />
<glyph unicode="&#xc3;" horiz-adv-x="920" d="M-76 2q0 65 133.5 347.5t339.5 633.5h1q171 293 284 293q23 0 54.5 -12t42.5 -15q35 -9 48 -20t13 -29q0 -15 -18.5 -45t-24.5 -51q-24 -71 -49 -332.5t-25 -554.5q0 -35 2 -77.5t2 -49.5q0 -37 -20.5 -57.5t-57.5 -20.5q-65 1 -68 235q-1 45 -2 68q-102 -8 -209.5 -23 t-217.5 -36q-25 -51 -58 -137q-59 -158 -135 -158q-15 0 -25 11.5t-10 29.5zM230 416q94 9 182 14.5t167 7.5q9 208 23.5 380t36.5 315q-159 -237 -408 -714zM519 1434q0 47 40.5 88t94.5 41q11 0 24 -3t25 -9l61 -35q11 -6 22 -9t21 -3q25 0 43 26.5t29 26.5h45q4 0 6 -1 t2 -5v-4q0 -48 -36 -85.5t-83 -37.5q-13 0 -26 3t-31 11l-65 31q-12 5 -24 7.5t-21 2.5q-31 0 -48.5 -25.5t-25.5 -25.5h-45q-3 0 -5.5 2t-2.5 4z" />
<glyph unicode="&#xc4;" horiz-adv-x="920" d="M-76 2q0 65 133.5 347.5t339.5 633.5h1q171 293 284 293q23 0 54.5 -12t42.5 -15q35 -9 48 -20t13 -29q0 -15 -18.5 -45t-24.5 -51q-24 -71 -49 -332.5t-25 -554.5q0 -35 2 -77.5t2 -49.5q0 -37 -20.5 -57.5t-57.5 -20.5q-65 1 -68 235q-1 45 -2 68q-102 -8 -209.5 -23 t-217.5 -36q-25 -51 -58 -137q-59 -158 -135 -158q-15 0 -25 11.5t-10 29.5zM230 416q94 9 182 14.5t167 7.5q9 208 23.5 380t36.5 315q-159 -237 -408 -714zM539 1461q0 41 28 73.5t62 32.5q25 0 38 -14.5t13 -40.5q0 -42 -27.5 -74.5t-64.5 -32.5q-21 0 -35 16t-14 40z M760 1461q0 41 28 73.5t62 32.5q25 0 39.5 -14.5t14.5 -40.5q0 -42 -29 -74.5t-66 -32.5q-20 0 -34.5 16t-14.5 40z" />
<glyph unicode="&#xc5;" horiz-adv-x="920" d="M-76 2q0 65 133.5 347.5t339.5 633.5h1q171 293 284 293q23 0 54.5 -12t42.5 -15q35 -9 48 -20t13 -29q0 -15 -18.5 -45t-24.5 -51q-24 -71 -49 -332.5t-25 -554.5q0 -35 2 -77.5t2 -49.5q0 -37 -20.5 -57.5t-57.5 -20.5q-65 1 -68 235q-1 45 -2 68q-102 -8 -209.5 -23 t-217.5 -36q-25 -51 -58 -137q-59 -158 -135 -158q-15 0 -25 11.5t-10 29.5zM230 416q94 9 182 14.5t167 7.5q9 208 23.5 380t36.5 315q-159 -237 -408 -714zM573 1481q0 63 45.5 108t108.5 45q64 0 110 -45t46 -108q0 -66 -45 -111t-111 -45q-65 0 -109.5 45t-44.5 111z M651 1479q0 -31 22.5 -53.5t53.5 -22.5q33 0 55.5 22t22.5 54q0 31 -23 53.5t-54 23.5q-33 0 -55 -22.5t-22 -54.5z" />
<glyph unicode="&#xc6;" horiz-adv-x="1413" d="M-117 4q0 47 108 233.5t288 447.5l6 8q394 573 501 573q15 0 30.5 -4.5t33.5 -14.5q49 3 84.5 4.5t58.5 1.5q106 0 261 -20.5t198 -20.5q14 0 23.5 -7t9.5 -17q0 -53 -247 -71q-181 -12 -300 -27q-34 -97 -73.5 -229.5t-88.5 -311.5q132 14 229.5 20t172.5 6 q53 0 77.5 -10.5t24.5 -34.5q0 -28 -11.5 -42.5t-35.5 -16.5q-82 -4 -200 -17.5t-294 -39.5q-30 -97 -50 -166t-34 -121q217 28 338 40.5t166 12.5q50 0 74 -9.5t24 -29.5q0 -41 -97 -54q-13 -2 -19 -3q-130 -21 -310.5 -68t-228.5 -47q-39 0 -69.5 31.5t-30.5 75.5 q0 27 48 210q19 72 29 113q-76 -7 -170 -21.5t-212 -37.5q-62 -89 -132 -227q-77 -152 -143 -152q-18 0 -28.5 11.5t-10.5 31.5zM300 494q10 1 35 5q174 25 286 36q59 205 106.5 371.5t73.5 264.5q-126 -146 -244 -305t-257 -372z" />
<glyph unicode="&#xc7;" horiz-adv-x="901" d="M12 287q0 130 81 329.5t224 413.5q87 129 160 195.5t127 66.5q32 0 68.5 -14.5t77.5 -42.5q78 -22 124 -68t46 -100q0 -39 -24 -67.5t-54 -28.5q-25 0 -38 20t-22 85q-3 24 -28 41.5t-60 17.5q-63 0 -137.5 -56t-155.5 -164q-110 -145 -175.5 -319t-65.5 -313 q0 -101 49 -157t135 -56q55 0 117 21t135 65q33 20 86 59t74 39q8 0 14 -8.5t6 -20.5q0 -21 -26.5 -54.5t-75.5 -72.5q-78 -62 -158.5 -96.5t-144.5 -34.5q-165 0 -262 86.5t-97 233.5zM117 -307l14 31l1 1q4 8 12 9l44.5 -13.5t90.5 -13.5q33 0 55.5 18t22.5 44 q0 29 -20 45t-58 16q-5 0 -17.5 -1t-21.5 -1q-6 0 -9 2.5t-3 5.5q0 6 1 11t3 10l43 143h67l-35 -117h19q62 0 94.5 -30.5t32.5 -88.5q0 -59 -43.5 -92.5t-120.5 -33.5q-65 0 -118.5 14t-53.5 31v6v4z" />
<glyph unicode="&#xc8;" horiz-adv-x="930" d="M16 76q0 26 66.5 274.5t218.5 792.5q23 82 49 96t160 14q67 0 220.5 -17.5t236.5 -23.5q17 -1 25.5 -7t8.5 -17q0 -53 -247 -71q-180 -12 -299 -27q-37 -107 -76.5 -240t-85.5 -301q131 14 229 20t172 6q54 0 78.5 -10.5t24.5 -34.5q0 -28 -11.5 -42.5t-36.5 -16.5 q-81 -4 -199 -17.5t-294 -39.5q-30 -97 -50 -166t-34 -121q220 28 338.5 40.5t163.5 12.5q50 0 75 -9.5t25 -29.5q0 -41 -97 -54q-13 -2 -20 -3q-129 -21 -310 -68t-228 -47q-40 0 -71.5 32t-31.5 75zM568 1606q0 7 3.5 9.5t14.5 2.5h94q9 0 16 -6.5t11 -20.5l2 -7 q14 -48 34 -94t38 -72l6 -7q2 -3 3 -6t1 -6q0 -4 -4 -6t-13 -2h-43q-9 0 -18.5 5.5t-15.5 15.5l-4 7q-6 9 -50 67.5t-67 101.5l-6 10q-2 4 -2 8z" />
<glyph unicode="&#xc9;" horiz-adv-x="930" d="M16 76q0 26 66.5 274.5t218.5 792.5q23 82 49 96t160 14q67 0 220.5 -17.5t236.5 -23.5q17 -1 25.5 -7t8.5 -17q0 -53 -247 -71q-180 -12 -299 -27q-37 -107 -76.5 -240t-85.5 -301q131 14 229 20t172 6q54 0 78.5 -10.5t24.5 -34.5q0 -28 -11.5 -42.5t-36.5 -16.5 q-81 -4 -199 -17.5t-294 -39.5q-30 -97 -50 -166t-34 -121q220 28 338.5 40.5t163.5 12.5q50 0 75 -9.5t25 -29.5q0 -41 -97 -54q-13 -2 -20 -3q-129 -21 -310 -68t-228 -47q-40 0 -71.5 32t-31.5 75zM611 1403q0 2 3 5t5 6l6 8q18 18 51.5 66t59.5 98l4 8q6 13 14.5 18.5 t19.5 5.5h99q9 0 13.5 -3t4.5 -9q0 -3 -1.5 -6t-4.5 -6l-8 -10q-39 -48 -85 -97t-71 -69l-8 -9q-11 -9 -21 -13.5t-20 -4.5h-45q-9 0 -12.5 3t-3.5 9z" />
<glyph unicode="&#xca;" horiz-adv-x="930" d="M16 76q0 26 66.5 274.5t218.5 792.5q23 82 49 96t160 14q67 0 220.5 -17.5t236.5 -23.5q17 -1 25.5 -7t8.5 -17q0 -53 -247 -71q-180 -12 -299 -27q-37 -107 -76.5 -240t-85.5 -301q131 14 229 20t172 6q54 0 78.5 -10.5t24.5 -34.5q0 -28 -11.5 -42.5t-36.5 -16.5 q-81 -4 -199 -17.5t-294 -39.5q-30 -97 -50 -166t-34 -121q220 28 338.5 40.5t163.5 12.5q50 0 75 -9.5t25 -29.5q0 -41 -97 -54q-13 -2 -20 -3q-129 -21 -310 -68t-228 -47q-40 0 -71.5 32t-31.5 75zM523 1459q0 3 2.5 8t7.5 8l4 4q12 8 46.5 43.5t66.5 75.5l2 7 q5 7 11.5 11t14.5 4h10h91q10 0 18 -4.5t20 -21.5l5 -4q20 -31 40.5 -68.5t28.5 -58.5l4 -6q3 -6 4.5 -12t1.5 -11t-2 -7.5t-10 -6.5l-43 -21q-1 0 -4 -1q-8 -3 -10 -3q-12 1 -22 21l-1 2l-2 6q-1 2 -5 9q-38 72 -73 118q-48 -54 -84 -91.5t-45 -43.5l-3 -2q-3 -2 -9 -8.5 t-10 -6.5q-5 0 -7.5 1t-7.5 5l-34 39q-3 3 -4.5 6.5t-1.5 8.5z" />
<glyph unicode="&#xcb;" horiz-adv-x="930" d="M16 76q0 26 66.5 274.5t218.5 792.5q23 82 49 96t160 14q67 0 220.5 -17.5t236.5 -23.5q17 -1 25.5 -7t8.5 -17q0 -53 -247 -71q-180 -12 -299 -27q-37 -107 -76.5 -240t-85.5 -301q131 14 229 20t172 6q54 0 78.5 -10.5t24.5 -34.5q0 -28 -11.5 -42.5t-36.5 -16.5 q-81 -4 -199 -17.5t-294 -39.5q-30 -97 -50 -166t-34 -121q220 28 338.5 40.5t163.5 12.5q50 0 75 -9.5t25 -29.5q0 -41 -97 -54q-13 -2 -20 -3q-129 -21 -310 -68t-228 -47q-40 0 -71.5 32t-31.5 75zM543 1461q0 41 28 73.5t62 32.5q25 0 38 -14.5t13 -40.5 q0 -42 -27.5 -74.5t-64.5 -32.5q-21 0 -35 16t-14 40zM764 1461q0 41 28 73.5t62 32.5q25 0 39.5 -14.5t14.5 -40.5q0 -42 -29 -74.5t-66 -32.5q-20 0 -34.5 16t-14.5 40z" />
<glyph unicode="&#xcc;" horiz-adv-x="469" d="M6 53q0 44 70 287t186 598q5 15 15 46q92 292 178 292q20 0 50 -24t30 -46q0 -7 -31 -80q-205 -492 -346 -1069v-16v-3q2 -11 2 -20q0 -16 -13.5 -25t-37.5 -9q-52 0 -77.5 17t-25.5 52zM338 1606q0 7 3.5 9.5t14.5 2.5h94q9 0 16 -6.5t11 -20.5l2 -7q14 -48 34 -94 t38 -72l6 -7q2 -3 3 -6t1 -6q0 -4 -4 -6t-13 -2h-43q-9 0 -18.5 5.5t-15.5 15.5l-4 7q-6 9 -50 67.5t-67 101.5l-6 10q-2 4 -2 8z" />
<glyph unicode="&#xcd;" horiz-adv-x="469" d="M6 53q0 44 70 287t186 598q5 15 15 46q92 292 178 292q20 0 50 -24t30 -46q0 -7 -31 -80q-205 -492 -346 -1069v-16v-3q2 -11 2 -20q0 -16 -13.5 -25t-37.5 -9q-52 0 -77.5 17t-25.5 52zM381 1403q0 2 3 5t5 6l6 8q18 18 51.5 66t59.5 98l4 8q6 13 14.5 18.5t19.5 5.5h99 q9 0 13.5 -3t4.5 -9q0 -3 -1.5 -6t-4.5 -6l-8 -10q-39 -48 -85 -97t-71 -69l-8 -9q-11 -9 -21 -13.5t-20 -4.5h-45q-9 0 -12.5 3t-3.5 9z" />
<glyph unicode="&#xce;" horiz-adv-x="469" d="M6 53q0 44 70 287t186 598q5 15 15 46q92 292 178 292q20 0 50 -24t30 -46q0 -7 -31 -80q-205 -492 -346 -1069v-16v-3q2 -11 2 -20q0 -16 -13.5 -25t-37.5 -9q-52 0 -77.5 17t-25.5 52zM293 1459q0 3 2.5 8t7.5 8l4 4q12 8 46.5 43.5t66.5 75.5l2 7q5 7 11.5 11t14.5 4 h10h91q10 0 18 -4.5t20 -21.5l5 -4q20 -31 40.5 -68.5t28.5 -58.5l4 -6q3 -6 4.5 -12t1.5 -11t-2 -7.5t-10 -6.5l-43 -21q-1 0 -4 -1q-8 -3 -10 -3q-12 1 -22 21l-1 2l-2 6q-1 2 -5 9q-38 72 -73 118q-48 -54 -84 -91.5t-45 -43.5l-3 -2q-3 -2 -9 -8.5t-10 -6.5q-5 0 -7.5 1 t-7.5 5l-34 39q-3 3 -4.5 6.5t-1.5 8.5z" />
<glyph unicode="&#xcf;" horiz-adv-x="469" d="M6 53q0 44 70 287t186 598q5 15 15 46q92 292 178 292q20 0 50 -24t30 -46q0 -7 -31 -80q-205 -492 -346 -1069v-16v-3q2 -11 2 -20q0 -16 -13.5 -25t-37.5 -9q-52 0 -77.5 17t-25.5 52zM313 1461q0 41 28 73.5t62 32.5q25 0 38 -14.5t13 -40.5q0 -42 -27.5 -74.5 t-64.5 -32.5q-21 0 -35 16t-14 40zM534 1461q0 41 28 73.5t62 32.5q25 0 39.5 -14.5t14.5 -40.5q0 -42 -29 -74.5t-66 -32.5q-20 0 -34.5 16t-14.5 40z" />
<glyph unicode="&#xd0;" horiz-adv-x="1053" d="M-23 596q0 30 173 44l10 1q43 149 86.5 277t79.5 212q-9 21 -13 38t-4 32q0 40 27 52t119 12q271 0 421 -123.5t150 -343.5q0 -140 -85 -282.5t-251 -283.5q-143 -121 -292 -192.5t-251 -71.5q-59 0 -89.5 24t-30.5 70q0 38 28.5 170t75.5 303q-37 -2 -63.5 -4t-38.5 -2 q-28 0 -40 16t-12 52zM174 80q131 36 250.5 110.5t226.5 186.5q116 121 182 251.5t66 233.5q0 115 -82.5 175.5t-241.5 60.5q-6 0 -28 -1.5t-68 -5.5q-27 -67 -59 -160t-90 -279q124 -3 169.5 -16.5t45.5 -45.5q0 -6 -1 -14t-4 -23q-20 0 -60 -1q-130 -2 -180 -7 q-52 -154 -82 -266t-44 -199z" />
<glyph unicode="&#xd1;" horiz-adv-x="977" d="M-8 4q0 22 18 99.5t49 185.5q73 253 152.5 479.5t138.5 355.5q21 46 70.5 70.5t120.5 24.5q27 0 43 -6.5t16 -16.5q0 -9 -7 -27.5t-20 -44.5q-14 -57 -21 -121.5t-7 -146.5q0 -169 15.5 -324.5t47.5 -300.5q77 337 234 764l8 21q11 29 28 79q66 187 130 187 q18 0 30.5 -8.5t12.5 -20.5q0 -7 -7.5 -23t-21.5 -42q-114 -314 -194.5 -571.5t-120.5 -436.5q-2 -7 -6 -24q-24 -117 -103 -117q-19 0 -51.5 25t-48.5 53q-26 43 -58 255t-32 443q0 39 1.5 89.5t4.5 112.5q-109 -305 -185.5 -556t-113.5 -422q-4 -16 -8 -41 q-10 -53 -27 -53q-28 0 -58 18.5t-30 40.5zM547 1434q0 47 40.5 88t94.5 41q11 0 24 -3t25 -9l61 -35q11 -6 22 -9t21 -3q25 0 43 26.5t29 26.5h45q4 0 6 -1t2 -5v-4q0 -48 -36 -85.5t-83 -37.5q-13 0 -26 3t-31 11l-65 31q-12 5 -24 7.5t-21 2.5q-31 0 -48.5 -25.5 t-25.5 -25.5h-45q-3 0 -5.5 2t-2.5 4z" />
<glyph unicode="&#xd2;" horiz-adv-x="1102" d="M35 350q0 132 55 280t160 294q114 160 240 260t204 100q33 0 63 -14.5t70 -50.5q118 -17 179 -102.5t61 -233.5q0 -115 -35 -255.5t-96 -265.5q-91 -184 -228.5 -294.5t-271.5 -110.5q-75 0 -164.5 34t-134.5 79q-50 45 -76 116.5t-26 163.5zM176 317q0 -118 57 -183.5 t160 -65.5q100 0 197.5 68t175.5 192q78 125 126 287.5t48 299.5q0 112 -41.5 170t-122.5 58q-73 0 -148.5 -45.5t-154.5 -136.5q-141 -165 -219 -334t-78 -310zM654 1606q0 7 3.5 9.5t14.5 2.5h94q9 0 16 -6.5t11 -20.5l2 -7q14 -48 34 -94t38 -72l6 -7q2 -3 3 -6t1 -6 q0 -4 -4 -6t-13 -2h-43q-9 0 -18.5 5.5t-15.5 15.5l-4 7q-6 9 -50 67.5t-67 101.5l-6 10q-2 4 -2 8z" />
<glyph unicode="&#xd3;" horiz-adv-x="1102" d="M35 350q0 132 55 280t160 294q114 160 240 260t204 100q33 0 63 -14.5t70 -50.5q118 -17 179 -102.5t61 -233.5q0 -115 -35 -255.5t-96 -265.5q-91 -184 -228.5 -294.5t-271.5 -110.5q-75 0 -164.5 34t-134.5 79q-50 45 -76 116.5t-26 163.5zM176 317q0 -118 57 -183.5 t160 -65.5q100 0 197.5 68t175.5 192q78 125 126 287.5t48 299.5q0 112 -41.5 170t-122.5 58q-73 0 -148.5 -45.5t-154.5 -136.5q-141 -165 -219 -334t-78 -310zM697 1403q0 2 3 5t5 6l6 8q18 18 51.5 66t59.5 98l4 8q6 13 14.5 18.5t19.5 5.5h99q9 0 13.5 -3t4.5 -9 q0 -3 -1.5 -6t-4.5 -6l-8 -10q-39 -48 -85 -97t-71 -69l-8 -9q-11 -9 -21 -13.5t-20 -4.5h-45q-9 0 -12.5 3t-3.5 9z" />
<glyph unicode="&#xd4;" horiz-adv-x="1102" d="M35 350q0 132 55 280t160 294q114 160 240 260t204 100q33 0 63 -14.5t70 -50.5q118 -17 179 -102.5t61 -233.5q0 -115 -35 -255.5t-96 -265.5q-91 -184 -228.5 -294.5t-271.5 -110.5q-75 0 -164.5 34t-134.5 79q-50 45 -76 116.5t-26 163.5zM176 317q0 -118 57 -183.5 t160 -65.5q100 0 197.5 68t175.5 192q78 125 126 287.5t48 299.5q0 112 -41.5 170t-122.5 58q-73 0 -148.5 -45.5t-154.5 -136.5q-141 -165 -219 -334t-78 -310zM609 1459q0 3 2.5 8t7.5 8l4 4q12 8 46.5 43.5t66.5 75.5l2 7q5 7 11.5 11t14.5 4h10h91q10 0 18 -4.5 t20 -21.5l5 -4q20 -31 40.5 -68.5t28.5 -58.5l4 -6q3 -6 4.5 -12t1.5 -11t-2 -7.5t-10 -6.5l-43 -21q-1 0 -4 -1q-8 -3 -10 -3q-12 1 -22 21l-1 2l-2 6q-1 2 -5 9q-38 72 -73 118q-48 -54 -84 -91.5t-45 -43.5l-3 -2q-3 -2 -9 -8.5t-10 -6.5q-5 0 -7.5 1t-7.5 5l-34 39 q-3 3 -4.5 6.5t-1.5 8.5z" />
<glyph unicode="&#xd5;" horiz-adv-x="1102" d="M35 350q0 132 55 280t160 294q114 160 240 260t204 100q33 0 63 -14.5t70 -50.5q118 -17 179 -102.5t61 -233.5q0 -115 -35 -255.5t-96 -265.5q-91 -184 -228.5 -294.5t-271.5 -110.5q-75 0 -164.5 34t-134.5 79q-50 45 -76 116.5t-26 163.5zM176 317q0 -118 57 -183.5 t160 -65.5q100 0 197.5 68t175.5 192q78 125 126 287.5t48 299.5q0 112 -41.5 170t-122.5 58q-73 0 -148.5 -45.5t-154.5 -136.5q-141 -165 -219 -334t-78 -310zM609 1434q0 47 40.5 88t94.5 41q11 0 24 -3t25 -9l61 -35q11 -6 22 -9t21 -3q25 0 43 26.5t29 26.5h45 q4 0 6 -1t2 -5v-4q0 -48 -36 -85.5t-83 -37.5q-13 0 -26 3t-31 11l-65 31q-12 5 -24 7.5t-21 2.5q-31 0 -48.5 -25.5t-25.5 -25.5h-45q-3 0 -5.5 2t-2.5 4z" />
<glyph unicode="&#xd6;" horiz-adv-x="1102" d="M35 350q0 132 55 280t160 294q114 160 240 260t204 100q33 0 63 -14.5t70 -50.5q118 -17 179 -102.5t61 -233.5q0 -115 -35 -255.5t-96 -265.5q-91 -184 -228.5 -294.5t-271.5 -110.5q-75 0 -164.5 34t-134.5 79q-50 45 -76 116.5t-26 163.5zM176 317q0 -118 57 -183.5 t160 -65.5q100 0 197.5 68t175.5 192q78 125 126 287.5t48 299.5q0 112 -41.5 170t-122.5 58q-73 0 -148.5 -45.5t-154.5 -136.5q-141 -165 -219 -334t-78 -310zM629 1461q0 41 28 73.5t62 32.5q25 0 38 -14.5t13 -40.5q0 -42 -27.5 -74.5t-64.5 -32.5q-21 0 -35 16t-14 40z M850 1461q0 41 28 73.5t62 32.5q25 0 39.5 -14.5t14.5 -40.5q0 -42 -29 -74.5t-66 -32.5q-20 0 -34.5 16t-14.5 40z" />
<glyph unicode="&#xd7;" horiz-adv-x="1706" d="M301 135l475 475l-475 477l80 82l477 -477l475 477l82 -82l-475 -477l475 -475l-82 -82l-475 475l-477 -475z" />
<glyph unicode="&#xd8;" horiz-adv-x="1102" d="M-63 -164q0 41 104 176q42 54 65 86q-37 63 -54 122.5t-17 127.5q0 133 55 280t160 294q114 161 240 261.5t204 100.5q33 0 63 -14.5t70 -50.5q40 -7 71.5 -18.5t54.5 -26.5q9 10 24 26q110 119 156 119q14 0 24 -9t10 -22q0 -18 -10.5 -39t-26.5 -31q-45 -50 -68 -76 t-42 -48q24 -42 35.5 -92t11.5 -117q0 -118 -35 -258.5t-96 -264.5q-91 -184 -228.5 -294.5t-271.5 -110.5q-53 0 -113 18t-135 56l-23 -32q-152 -204 -173 -204q-19 0 -37 13t-18 28zM176 315q0 -25 4 -51.5t13 -56.5q160 211 332.5 430.5t365.5 458.5q-25 24 -52 35.5 t-63 11.5q-89 0 -180 -66t-195 -205q-107 -143 -166 -289t-59 -268zM252 113q28 -24 60.5 -34.5t76.5 -10.5q104 0 201.5 67t177.5 193q78 124 125 287t47 311q0 17 -1.5 34.5t-4.5 34.5q-136 -169 -304.5 -387.5t-377.5 -494.5z" />
<glyph unicode="&#xd9;" horiz-adv-x="1020" d="M74 229q0 114 66 347.5t175 479.5q5 11 12 27q66 150 134 150q34 0 63 -20t29 -48q0 -15 -8 -27t-25 -22q-144 -314 -221.5 -562.5t-77.5 -395.5q0 -49 16 -78t42 -29q30 0 77.5 34.5t104.5 98.5q73 83 124 164t72 148q100 301 161.5 480.5t84.5 237.5q15 38 34 52t52 14 q60 0 94.5 -19.5t34.5 -52.5q0 -20 -7.5 -32.5t-27.5 -22.5q-150 -322 -241.5 -611.5t-91.5 -404.5q0 -40 8 -79q2 -9 2 -11q0 -12 -17.5 -26.5t-35.5 -14.5q-38 0 -60 46.5t-22 125.5q0 16 1.5 33t3.5 36q-76 -127 -165.5 -204.5t-157.5 -77.5q-102 0 -167.5 71.5 t-65.5 192.5zM613 1606q0 7 3.5 9.5t14.5 2.5h94q9 0 16 -6.5t11 -20.5l2 -7q14 -48 34 -94t38 -72l6 -7q2 -3 3 -6t1 -6q0 -4 -4 -6t-13 -2h-43q-9 0 -18.5 5.5t-15.5 15.5l-4 7q-6 9 -50 67.5t-67 101.5l-6 10q-2 4 -2 8z" />
<glyph unicode="&#xda;" horiz-adv-x="1020" d="M74 229q0 114 66 347.5t175 479.5q5 11 12 27q66 150 134 150q34 0 63 -20t29 -48q0 -15 -8 -27t-25 -22q-144 -314 -221.5 -562.5t-77.5 -395.5q0 -49 16 -78t42 -29q30 0 77.5 34.5t104.5 98.5q73 83 124 164t72 148q100 301 161.5 480.5t84.5 237.5q15 38 34 52t52 14 q60 0 94.5 -19.5t34.5 -52.5q0 -20 -7.5 -32.5t-27.5 -22.5q-150 -322 -241.5 -611.5t-91.5 -404.5q0 -40 8 -79q2 -9 2 -11q0 -12 -17.5 -26.5t-35.5 -14.5q-38 0 -60 46.5t-22 125.5q0 16 1.5 33t3.5 36q-76 -127 -165.5 -204.5t-157.5 -77.5q-102 0 -167.5 71.5 t-65.5 192.5zM656 1403q0 2 3 5t5 6l6 8q18 18 51.5 66t59.5 98l4 8q6 13 14.5 18.5t19.5 5.5h99q9 0 13.5 -3t4.5 -9q0 -3 -1.5 -6t-4.5 -6l-8 -10q-39 -48 -85 -97t-71 -69l-8 -9q-11 -9 -21 -13.5t-20 -4.5h-45q-9 0 -12.5 3t-3.5 9z" />
<glyph unicode="&#xdb;" horiz-adv-x="1020" d="M74 229q0 114 66 347.5t175 479.5q5 11 12 27q66 150 134 150q34 0 63 -20t29 -48q0 -15 -8 -27t-25 -22q-144 -314 -221.5 -562.5t-77.5 -395.5q0 -49 16 -78t42 -29q30 0 77.5 34.5t104.5 98.5q73 83 124 164t72 148q100 301 161.5 480.5t84.5 237.5q15 38 34 52t52 14 q60 0 94.5 -19.5t34.5 -52.5q0 -20 -7.5 -32.5t-27.5 -22.5q-150 -322 -241.5 -611.5t-91.5 -404.5q0 -40 8 -79q2 -9 2 -11q0 -12 -17.5 -26.5t-35.5 -14.5q-38 0 -60 46.5t-22 125.5q0 16 1.5 33t3.5 36q-76 -127 -165.5 -204.5t-157.5 -77.5q-102 0 -167.5 71.5 t-65.5 192.5zM568 1459q0 3 2.5 8t7.5 8l4 4q12 8 46.5 43.5t66.5 75.5l2 7q5 7 11.5 11t14.5 4h10h91q10 0 18 -4.5t20 -21.5l5 -4q20 -31 40.5 -68.5t28.5 -58.5l4 -6q3 -6 4.5 -12t1.5 -11t-2 -7.5t-10 -6.5l-43 -21q-1 0 -4 -1q-8 -3 -10 -3q-12 1 -22 21l-1 2l-2 6 q-1 2 -5 9q-38 72 -73 118q-48 -54 -84 -91.5t-45 -43.5l-3 -2q-3 -2 -9 -8.5t-10 -6.5q-5 0 -7.5 1t-7.5 5l-34 39q-3 3 -4.5 6.5t-1.5 8.5z" />
<glyph unicode="&#xdc;" horiz-adv-x="1020" d="M74 229q0 114 66 347.5t175 479.5q5 11 12 27q66 150 134 150q34 0 63 -20t29 -48q0 -15 -8 -27t-25 -22q-144 -314 -221.5 -562.5t-77.5 -395.5q0 -49 16 -78t42 -29q30 0 77.5 34.5t104.5 98.5q73 83 124 164t72 148q100 301 161.5 480.5t84.5 237.5q15 38 34 52t52 14 q60 0 94.5 -19.5t34.5 -52.5q0 -20 -7.5 -32.5t-27.5 -22.5q-150 -322 -241.5 -611.5t-91.5 -404.5q0 -40 8 -79q2 -9 2 -11q0 -12 -17.5 -26.5t-35.5 -14.5q-38 0 -60 46.5t-22 125.5q0 16 1.5 33t3.5 36q-76 -127 -165.5 -204.5t-157.5 -77.5q-102 0 -167.5 71.5 t-65.5 192.5zM588 1461q0 41 28 73.5t62 32.5q25 0 38 -14.5t13 -40.5q0 -42 -27.5 -74.5t-64.5 -32.5q-21 0 -35 16t-14 40zM809 1461q0 41 28 73.5t62 32.5q25 0 39.5 -14.5t14.5 -40.5q0 -42 -29 -74.5t-66 -32.5q-20 0 -34.5 16t-14.5 40z" />
<glyph unicode="&#xdd;" horiz-adv-x="807" d="M180 72q0 39 35 170.5t92 294.5q-50 212 -78 376.5t-28 247.5q0 39 20 59.5t60 20.5q72 0 95 -268q18 -201 38 -338q204 315 358.5 506.5t200.5 191.5q22 0 36.5 -18t14.5 -41q0 -11 -122 -162t-224 -289q-15 -19 -45 -58q-134 -172 -191 -323q-53 -142 -95 -322 q-34 -143 -79 -143q-36 0 -62 27.5t-26 67.5zM549 1403q0 2 3 5t5 6l6 8q18 18 51.5 66t59.5 98l4 8q6 13 14.5 18.5t19.5 5.5h99q9 0 13.5 -3t4.5 -9q0 -3 -1.5 -6t-4.5 -6l-8 -10q-39 -48 -85 -97t-71 -69l-8 -9q-11 -9 -21 -13.5t-20 -4.5h-45q-9 0 -12.5 3t-3.5 9z" />
<glyph unicode="&#xde;" horiz-adv-x="862" d="M12 23q0 57 87.5 398.5t217.5 758.5q23 68 47 89t64 21q48 0 82.5 -18t34.5 -41q0 -14 -37.5 -60t-52.5 -100q8 0 18 -1t12 -1q161 0 279.5 -90t118.5 -217q0 -176 -182 -319t-486 -199q-13 -47 -24 -94.5t-21 -100.5q-6 -42 -21 -59t-47 -17q-34 0 -62 15.5t-28 34.5z M244 365q203 28 356.5 158t153.5 257q0 61 -67.5 100.5t-176.5 39.5q-30 0 -59 -4t-54 -11q-46 -136 -84 -271t-69 -269z" />
<glyph unicode="&#xdf;" horiz-adv-x="616" d="M-27 18q0 37 51 215t134 429q93 276 200.5 433.5t198.5 157.5q15 0 29.5 -15.5t27.5 -47.5q24 -15 34.5 -39t10.5 -64q0 -112 -47 -222t-137 -203q-36 -38 -55 -94t-19 -126q0 -106 32 -239t32 -166q0 -56 -31 -95.5t-65 -39.5q-35 0 -97.5 49.5t-80.5 58.5q-9 4 -24 7 q-19 4 -20 20q0 21 13.5 41t25.5 20q21 0 152 -58l20 -9q-1 29 -29 172.5t-28 257.5q0 63 26 120t81 113q79 109 122 215.5t43 190.5q0 24 -7.5 39.5t-18.5 15.5q-38 0 -80.5 -63.5t-118.5 -243.5q-65 -156 -118.5 -314.5t-92.5 -314.5q-14 -55 -28 -133q-20 -111 -82 -111 q-27 0 -40.5 11t-13.5 32z" />
<glyph unicode="&#xe0;" horiz-adv-x="537" d="M-117 88q0 71 27 154t80 172q51 92 110.5 145t110.5 53q27 0 50 -14t46 -45q20 6 32 8t23 2q36 0 59 -15.5t23 -37.5q0 -14 -27 -69q-23 -45 -36 -74q-38 -84 -60 -153t-22 -97q0 -15 4 -21t14 -6q15 0 42.5 30.5t93.5 123.5q12 17 28 42q17 27 25 27q11 0 22 -16t11 -29 q0 -16 -32 -71.5t-79 -116.5q-36 -47 -65.5 -66.5t-61.5 -19.5q-44 0 -68 31.5t-24 89.5q0 16 0.5 25t1.5 15q-50 -91 -109 -140.5t-116 -49.5q-46 0 -74.5 34.5t-28.5 88.5zM-12 72q0 -13 4 -18t12 -5q20 0 56.5 35t74.5 92q59 88 100 180.5t41 114.5q0 14 -8 22.5t-22 8.5 q-34 0 -78 -46t-88 -128q-42 -79 -67 -149.5t-25 -106.5zM160 942q0 7 3.5 9.5t14.5 2.5h94q9 0 16 -6.5t11 -20.5l2 -7q14 -48 34 -94t38 -72l6 -7q2 -3 3 -6t1 -6q0 -4 -4 -6t-13 -2h-43q-9 0 -18.5 5.5t-15.5 15.5l-4 7q-6 9 -50 67.5t-67 101.5l-6 10q-2 4 -2 8z" />
<glyph unicode="&#xe1;" horiz-adv-x="537" d="M-117 88q0 71 27 154t80 172q51 92 110.5 145t110.5 53q27 0 50 -14t46 -45q20 6 32 8t23 2q36 0 59 -15.5t23 -37.5q0 -14 -27 -69q-23 -45 -36 -74q-38 -84 -60 -153t-22 -97q0 -15 4 -21t14 -6q15 0 42.5 30.5t93.5 123.5q12 17 28 42q17 27 25 27q11 0 22 -16t11 -29 q0 -16 -32 -71.5t-79 -116.5q-36 -47 -65.5 -66.5t-61.5 -19.5q-44 0 -68 31.5t-24 89.5q0 16 0.5 25t1.5 15q-50 -91 -109 -140.5t-116 -49.5q-46 0 -74.5 34.5t-28.5 88.5zM-12 72q0 -13 4 -18t12 -5q20 0 56.5 35t74.5 92q59 88 100 180.5t41 114.5q0 14 -8 22.5t-22 8.5 q-34 0 -78 -46t-88 -128q-42 -79 -67 -149.5t-25 -106.5zM203 739q0 2 3 5t5 6l6 8q18 18 51.5 66t59.5 98l4 8q6 13 14.5 18.5t19.5 5.5h99q9 0 13.5 -3t4.5 -9q0 -3 -1.5 -6t-4.5 -6l-8 -10q-39 -48 -85 -97t-71 -69l-8 -9q-11 -9 -21 -13.5t-20 -4.5h-45q-9 0 -12.5 3 t-3.5 9z" />
<glyph unicode="&#xe2;" horiz-adv-x="537" d="M-117 88q0 71 27 154t80 172q51 92 110.5 145t110.5 53q27 0 50 -14t46 -45q20 6 32 8t23 2q36 0 59 -15.5t23 -37.5q0 -14 -27 -69q-23 -45 -36 -74q-38 -84 -60 -153t-22 -97q0 -15 4 -21t14 -6q15 0 42.5 30.5t93.5 123.5q12 17 28 42q17 27 25 27q11 0 22 -16t11 -29 q0 -16 -32 -71.5t-79 -116.5q-36 -47 -65.5 -66.5t-61.5 -19.5q-44 0 -68 31.5t-24 89.5q0 16 0.5 25t1.5 15q-50 -91 -109 -140.5t-116 -49.5q-46 0 -74.5 34.5t-28.5 88.5zM-12 72q0 -13 4 -18t12 -5q20 0 56.5 35t74.5 92q59 88 100 180.5t41 114.5q0 14 -8 22.5t-22 8.5 q-34 0 -78 -46t-88 -128q-42 -79 -67 -149.5t-25 -106.5zM115 795q0 3 2.5 8t7.5 8l4 4q12 8 46.5 43.5t66.5 75.5l2 7q5 7 11.5 11t14.5 4h10h91q10 0 18 -4.5t20 -21.5l5 -4q20 -31 40.5 -68.5t28.5 -58.5l4 -6q3 -6 4.5 -12t1.5 -11t-2 -7.5t-10 -6.5l-43 -21q-1 0 -4 -1 q-8 -3 -10 -3q-12 1 -22 21l-1 2l-2 6q-1 2 -5 9q-38 72 -73 118q-48 -54 -84 -91.5t-45 -43.5l-3 -2q-3 -2 -9 -8.5t-10 -6.5q-5 0 -7.5 1t-7.5 5l-34 39q-3 3 -4.5 6.5t-1.5 8.5z" />
<glyph unicode="&#xe3;" horiz-adv-x="537" d="M-117 88q0 71 27 154t80 172q51 92 110.5 145t110.5 53q27 0 50 -14t46 -45q20 6 32 8t23 2q36 0 59 -15.5t23 -37.5q0 -14 -27 -69q-23 -45 -36 -74q-38 -84 -60 -153t-22 -97q0 -15 4 -21t14 -6q15 0 42.5 30.5t93.5 123.5q12 17 28 42q17 27 25 27q11 0 22 -16t11 -29 q0 -16 -32 -71.5t-79 -116.5q-36 -47 -65.5 -66.5t-61.5 -19.5q-44 0 -68 31.5t-24 89.5q0 16 0.5 25t1.5 15q-50 -91 -109 -140.5t-116 -49.5q-46 0 -74.5 34.5t-28.5 88.5zM-12 72q0 -13 4 -18t12 -5q20 0 56.5 35t74.5 92q59 88 100 180.5t41 114.5q0 14 -8 22.5t-22 8.5 q-34 0 -78 -46t-88 -128q-42 -79 -67 -149.5t-25 -106.5zM115 770q0 47 40.5 88t94.5 41q11 0 24 -3t25 -9l61 -35q11 -6 22 -9t21 -3q25 0 43 26.5t29 26.5h45q4 0 6 -1t2 -5v-4q0 -48 -36 -85.5t-83 -37.5q-13 0 -26 3t-31 11l-65 31q-12 5 -24 7.5t-21 2.5 q-31 0 -48.5 -25.5t-25.5 -25.5h-45q-3 0 -5.5 2t-2.5 4z" />
<glyph unicode="&#xe4;" horiz-adv-x="537" d="M-117 88q0 71 27 154t80 172q51 92 110.5 145t110.5 53q27 0 50 -14t46 -45q20 6 32 8t23 2q36 0 59 -15.5t23 -37.5q0 -14 -27 -69q-23 -45 -36 -74q-38 -84 -60 -153t-22 -97q0 -15 4 -21t14 -6q15 0 42.5 30.5t93.5 123.5q12 17 28 42q17 27 25 27q11 0 22 -16t11 -29 q0 -16 -32 -71.5t-79 -116.5q-36 -47 -65.5 -66.5t-61.5 -19.5q-44 0 -68 31.5t-24 89.5q0 16 0.5 25t1.5 15q-50 -91 -109 -140.5t-116 -49.5q-46 0 -74.5 34.5t-28.5 88.5zM-12 72q0 -13 4 -18t12 -5q20 0 56.5 35t74.5 92q59 88 100 180.5t41 114.5q0 14 -8 22.5t-22 8.5 q-34 0 -78 -46t-88 -128q-42 -79 -67 -149.5t-25 -106.5zM135 797q0 41 28 73.5t62 32.5q25 0 38 -14.5t13 -40.5q0 -42 -27.5 -74.5t-64.5 -32.5q-21 0 -35 16t-14 40zM356 797q0 41 28 73.5t62 32.5q25 0 39.5 -14.5t14.5 -40.5q0 -42 -29 -74.5t-66 -32.5q-20 0 -34.5 16 t-14.5 40z" />
<glyph unicode="&#xe5;" horiz-adv-x="537" d="M-117 92q0 69 27.5 151t79.5 171q51 92 110.5 145t110.5 53q27 0 50 -14t46 -45q20 6 32 8t23 2q36 0 59 -15.5t23 -37.5q0 -14 -27 -69q-23 -45 -36 -74q-38 -84 -60 -153t-22 -97q0 -15 4 -21t14 -6q15 0 42.5 30.5t93.5 123.5q12 17 28 42q17 27 25 27q11 0 22 -16 t11 -29q0 -16 -32 -71.5t-79 -116.5q-36 -47 -65.5 -66.5t-61.5 -19.5q-44 0 -68 31.5t-24 89.5q0 16 0.5 25t1.5 15q-50 -91 -109 -140.5t-116 -49.5q-46 0 -74.5 35t-28.5 92zM-12 72q0 -13 4 -18t12 -5q20 0 56.5 35t74.5 92q59 88 100 180.5t41 114.5q0 14 -8 22.5 t-22 8.5q-34 0 -78 -46t-88 -128q-42 -79 -67 -149.5t-25 -106.5zM162 815q0 63 46 108.5t109 45.5q64 0 109 -45t45 -109q0 -66 -44 -111t-110 -45q-65 0 -110 45.5t-45 110.5zM240 813q0 -30 23 -53t54 -23q33 0 54.5 22t21.5 54q0 33 -22 55.5t-54 22.5t-54.5 -23 t-22.5 -55z" />
<glyph unicode="&#xe6;" horiz-adv-x="682" d="M-117 90q0 69 27.5 152.5t79.5 171.5q51 92 110.5 145t110.5 53q32 0 57.5 -18t46.5 -57q32 67 64 98t70 31q13 0 27 -5t30 -16q14 -4 37 -10q59 -16 59 -72q0 -125 -71.5 -230.5t-147.5 -105.5q-16 0 -31.5 7.5t-29.5 21.5q-8 -27 -11.5 -53.5t-3.5 -55.5 q0 -56 16.5 -86t47.5 -30q55 0 130.5 69.5t133.5 178.5q3 6 9 17q26 50 38 50q10 0 19.5 -11.5t9.5 -27.5q0 -21 -23.5 -67t-62.5 -97q-74 -95 -139.5 -136.5t-139.5 -41.5t-112 42t-39 124q-48 -80 -102 -123t-107 -43q-46 0 -74.5 34.5t-28.5 90.5zM-12 72q0 -13 4 -18 t12 -5q20 0 56.5 35t74.5 92q59 88 100 180.5t41 114.5q0 14 -8 22.5t-22 8.5q-34 0 -78 -46t-88 -128q-42 -79 -67 -149.5t-25 -106.5zM354 352q0 -28 11 -44.5t28 -16.5q33 0 66 73t33 144q0 12 -8 21.5t-17 9.5q-28 0 -70.5 -71.5t-42.5 -115.5z" />
<glyph unicode="&#xe7;" horiz-adv-x="451" d="M-117 -307l14 31l1 1q4 8 12 9l44.5 -13.5t90.5 -13.5q33 0 55.5 18t22.5 44q0 29 -20 45t-58 16q-5 0 -17.5 -1t-21.5 -1q-6 0 -9 2.5t-3 5.5q0 6 1 11t3 10l43 143h67l-35 -117h19q62 0 94.5 -30.5t32.5 -88.5q0 -59 -43.5 -92.5t-120.5 -33.5q-65 0 -118.5 14 t-53.5 31v6v4zM-74 123q0 112 61.5 258t141.5 225q21 20 44 28.5t54 8.5q22 0 41.5 -7t41.5 -22q33 -6 52 -34t19 -72q0 -69 -36 -143t-75 -74q-22 0 -39.5 16.5t-17.5 36.5q0 31 23 98.5t30 101.5l-8 1q-14 0 -29.5 -10t-29.5 -29q-71 -91 -118.5 -214.5t-47.5 -201.5 q0 -47 16 -70.5t49 -23.5q53 0 110.5 40.5t125.5 125.5q32 40 60 89.5t34 49.5q9 0 23 -10t14 -21q0 -16 -18 -54.5t-48 -82.5q-61 -92 -136.5 -141t-153.5 -49q-84 0 -133.5 48.5t-49.5 131.5z" />
<glyph unicode="&#xe8;" horiz-adv-x="408" d="M-84 143q0 94 44.5 225t113.5 232q22 32 47.5 49t50.5 17q14 -1 26.5 -5.5t29.5 -15.5q14 -4 36 -10q60 -16 60 -72q0 -126 -71 -231t-147 -105q-16 0 -31.5 7.5t-29.5 21.5q-7 -26 -10.5 -52.5t-3.5 -56.5q0 -57 15.5 -86.5t45.5 -29.5q56 0 132.5 70t133.5 177 q5 9 14 27q20 41 31 41t21 -11.5t10 -27.5q0 -20 -24 -66t-64 -98q-74 -95 -138.5 -136.5t-137.5 -41.5q-77 0 -115.5 44.5t-38.5 133.5zM78 352q0 -28 10.5 -44.5t28.5 -16.5q33 0 65.5 73t32.5 144q0 12 -7.5 21.5t-17.5 9.5q-28 0 -70 -71.5t-42 -115.5zM97 942 q0 7 3.5 9.5t14.5 2.5h94q9 0 16 -6.5t11 -20.5l2 -7q14 -48 34 -94t38 -72l6 -7q2 -3 3 -6t1 -6q0 -4 -4 -6t-13 -2h-43q-9 0 -18.5 5.5t-15.5 15.5l-4 7q-6 9 -50 67.5t-67 101.5l-6 10q-2 4 -2 8z" />
<glyph unicode="&#xe9;" horiz-adv-x="408" d="M-84 143q0 94 44.5 225t113.5 232q22 32 47.5 49t50.5 17q14 -1 26.5 -5.5t29.5 -15.5q14 -4 36 -10q60 -16 60 -72q0 -126 -71 -231t-147 -105q-16 0 -31.5 7.5t-29.5 21.5q-7 -26 -10.5 -52.5t-3.5 -56.5q0 -57 15.5 -86.5t45.5 -29.5q56 0 132.5 70t133.5 177 q5 9 14 27q20 41 31 41t21 -11.5t10 -27.5q0 -20 -24 -66t-64 -98q-74 -95 -138.5 -136.5t-137.5 -41.5q-77 0 -115.5 44.5t-38.5 133.5zM78 352q0 -28 10.5 -44.5t28.5 -16.5q33 0 65.5 73t32.5 144q0 12 -7.5 21.5t-17.5 9.5q-28 0 -70 -71.5t-42 -115.5zM140 739q0 2 3 5 t5 6l6 8q18 18 51.5 66t59.5 98l4 8q6 13 14.5 18.5t19.5 5.5h99q9 0 13.5 -3t4.5 -9q0 -3 -1.5 -6t-4.5 -6l-8 -10q-39 -48 -85 -97t-71 -69l-8 -9q-11 -9 -21 -13.5t-20 -4.5h-45q-9 0 -12.5 3t-3.5 9z" />
<glyph unicode="&#xea;" horiz-adv-x="408" d="M-84 143q0 94 44.5 225t113.5 232q22 32 47.5 49t50.5 17q14 -1 26.5 -5.5t29.5 -15.5q14 -4 36 -10q60 -16 60 -72q0 -126 -71 -231t-147 -105q-16 0 -31.5 7.5t-29.5 21.5q-7 -26 -10.5 -52.5t-3.5 -56.5q0 -57 15.5 -86.5t45.5 -29.5q56 0 132.5 70t133.5 177 q5 9 14 27q20 41 31 41t21 -11.5t10 -27.5q0 -20 -24 -66t-64 -98q-74 -95 -138.5 -136.5t-137.5 -41.5q-77 0 -115.5 44.5t-38.5 133.5zM52 795q0 3 2.5 8t7.5 8l4 4q12 8 46.5 43.5t66.5 75.5l2 7q5 7 11.5 11t14.5 4h10h91q10 0 18 -4.5t20 -21.5l5 -4q20 -31 40.5 -68.5 t28.5 -58.5l4 -6q3 -6 4.5 -12t1.5 -11t-2 -7.5t-10 -6.5l-43 -21q-1 0 -4 -1q-8 -3 -10 -3q-12 1 -22 21l-1 2l-2 6q-1 2 -5 9q-38 72 -73 118q-48 -54 -84 -91.5t-45 -43.5l-3 -2q-3 -2 -9 -8.5t-10 -6.5q-5 0 -7.5 1t-7.5 5l-34 39q-3 3 -4.5 6.5t-1.5 8.5zM78 352 q0 -28 10.5 -44.5t28.5 -16.5q33 0 65.5 73t32.5 144q0 12 -7.5 21.5t-17.5 9.5q-28 0 -70 -71.5t-42 -115.5z" />
<glyph unicode="&#xeb;" horiz-adv-x="408" d="M-84 143q0 94 44.5 225t113.5 232q22 32 47.5 49t50.5 17q14 -1 26.5 -5.5t29.5 -15.5q14 -4 36 -10q60 -16 60 -72q0 -126 -71 -231t-147 -105q-16 0 -31.5 7.5t-29.5 21.5q-7 -26 -10.5 -52.5t-3.5 -56.5q0 -57 15.5 -86.5t45.5 -29.5q56 0 132.5 70t133.5 177 q5 9 14 27q20 41 31 41t21 -11.5t10 -27.5q0 -20 -24 -66t-64 -98q-74 -95 -138.5 -136.5t-137.5 -41.5q-77 0 -115.5 44.5t-38.5 133.5zM72 797q0 41 28 73.5t62 32.5q25 0 38 -14.5t13 -40.5q0 -42 -27.5 -74.5t-64.5 -32.5q-21 0 -35 16t-14 40zM78 352q0 -28 10.5 -44.5 t28.5 -16.5q33 0 65.5 73t32.5 144q0 12 -7.5 21.5t-17.5 9.5q-28 0 -70 -71.5t-42 -115.5zM293 797q0 41 28 73.5t62 32.5q25 0 39.5 -14.5t14.5 -40.5q0 -42 -29 -74.5t-66 -32.5q-20 0 -34.5 16t-14.5 40z" />
<glyph unicode="&#xec;" horiz-adv-x="307" d="M-59 150q0 91 30 208t60 160q12 19 38 30t58 11q18 0 28.5 -8.5t10.5 -24.5q0 -6 -14 -42l-15 -40l-13 -37q-85 -232 -85 -292q0 -23 8.5 -34t26.5 -11q26 0 75 50t97 130q6 11 17 32q17 33 26 33q12 0 24.5 -11.5t12.5 -27.5q0 -7 -35 -66q-17 -29 -27 -46 q-58 -99 -106 -140.5t-101 -41.5t-84.5 45t-31.5 123zM17 942q0 7 3.5 9.5t14.5 2.5h94q9 0 16 -6.5t11 -20.5l2 -7q14 -48 34 -94t38 -72l6 -7q2 -3 3 -6t1 -6q0 -4 -4 -6t-13 -2h-43q-9 0 -18.5 5.5t-15.5 15.5l-4 7q-6 9 -50 67.5t-67 101.5l-6 10q-2 4 -2 8z" />
<glyph unicode="&#xed;" horiz-adv-x="307" d="M-59 150q0 91 30 208t60 160q12 19 38 30t58 11q18 0 28.5 -8.5t10.5 -24.5q0 -6 -14 -42l-15 -40l-13 -37q-85 -232 -85 -292q0 -23 8.5 -34t26.5 -11q26 0 75 50t97 130q6 11 17 32q17 33 26 33q12 0 24.5 -11.5t12.5 -27.5q0 -7 -35 -66q-17 -29 -27 -46 q-58 -99 -106 -140.5t-101 -41.5t-84.5 45t-31.5 123zM60 739q0 2 3 5t5 6l6 8q18 18 51.5 66t59.5 98l4 8q6 13 14.5 18.5t19.5 5.5h99q9 0 13.5 -3t4.5 -9q0 -3 -1.5 -6t-4.5 -6l-8 -10q-39 -48 -85 -97t-71 -69l-8 -9q-11 -9 -21 -13.5t-20 -4.5h-45q-9 0 -12.5 3t-3.5 9 z" />
<glyph unicode="&#xee;" horiz-adv-x="307" d="M-59 150q0 91 30 208t60 160q12 19 38 30t58 11q18 0 28.5 -8.5t10.5 -24.5q0 -6 -14 -42l-15 -40l-13 -37q-85 -232 -85 -292q0 -23 8.5 -34t26.5 -11q26 0 75 50t97 130q6 11 17 32q17 33 26 33q12 0 24.5 -11.5t12.5 -27.5q0 -7 -35 -66q-17 -29 -27 -46 q-58 -99 -106 -140.5t-101 -41.5t-84.5 45t-31.5 123zM-28 795q0 3 2.5 8t7.5 8l4 4q12 8 46.5 43.5t66.5 75.5l2 7q5 7 11.5 11t14.5 4h10h91q10 0 18 -4.5t20 -21.5l5 -4q20 -31 40.5 -68.5t28.5 -58.5l4 -6q3 -6 4.5 -12t1.5 -11t-2 -7.5t-10 -6.5l-43 -21q-1 0 -4 -1 q-8 -3 -10 -3q-12 1 -22 21l-1 2l-2 6q-1 2 -5 9q-38 72 -73 118q-48 -54 -84 -91.5t-45 -43.5l-3 -2q-3 -2 -9 -8.5t-10 -6.5q-5 0 -7.5 1t-7.5 5l-34 39q-3 3 -4.5 6.5t-1.5 8.5z" />
<glyph unicode="&#xef;" horiz-adv-x="307" d="M-59 150q0 91 30 208t60 160q12 19 38 30t58 11q18 0 28.5 -8.5t10.5 -24.5q0 -6 -14 -42l-15 -40l-13 -37q-85 -232 -85 -292q0 -23 8.5 -34t26.5 -11q26 0 75 50t97 130q6 11 17 32q17 33 26 33q12 0 24.5 -11.5t12.5 -27.5q0 -7 -35 -66q-17 -29 -27 -46 q-58 -99 -106 -140.5t-101 -41.5t-84.5 45t-31.5 123zM-8 797q0 41 28 73.5t62 32.5q25 0 38 -14.5t13 -40.5q0 -42 -27.5 -74.5t-64.5 -32.5q-21 0 -35 16t-14 40zM213 797q0 41 28 73.5t62 32.5q25 0 39.5 -14.5t14.5 -40.5q0 -42 -29 -74.5t-66 -32.5q-20 0 -34.5 16 t-14.5 40z" />
<glyph unicode="&#xf0;" horiz-adv-x="502" d="M-86 109q0 67 33 161.5t88 180.5q31 49 61.5 73.5t61.5 24.5q23 0 47.5 -14.5t44.5 -40.5q-8 68 -29 137.5t-57 144.5q-49 -20 -121.5 -59t-95.5 -39q-13 0 -22 8t-9 19q0 17 38 42.5t177 96.5q-39 87 -91 152.5t-52 68.5q0 16 15.5 32.5t33.5 16.5t68.5 -62t113.5 -163 q97 50 146 69t79 19q14 0 25.5 -9t11.5 -18q0 -6 -9 -13.5t-25 -14.5q-2 -1 -14 -6q-89 -36 -183 -91q53 -107 78.5 -209.5t25.5 -203.5q0 -7 -1 -26t-1 -30q53 17 97 72t57 55q15 0 24 -7.5t9 -20.5q0 -16 -9 -32t-28 -36q-37 -54 -78 -85.5t-86 -39.5 q-44 -156 -114 -237.5t-161 -81.5q-68 0 -108.5 44.5t-40.5 121.5zM33 98q0 -32 10.5 -47.5t32.5 -15.5q53 0 114.5 117t61.5 225q0 27 -10 42t-27 15q-50 0 -116 -115.5t-66 -220.5z" />
<glyph unicode="&#xf1;" horiz-adv-x="526" d="M-86 70q0 50 32.5 181t82.5 249q17 41 32.5 54t42.5 13q23 0 42.5 -13.5t19.5 -31.5q0 -4 -13 -31q-84 -172 -118 -368q133 256 207.5 366.5t113.5 110.5q32 0 60 -22t28 -50q0 -17 -20 -33t-21 -16q-5 -7 -19 -43.5t-30 -87.5q-21 -72 -34 -138.5t-13 -98.5 q0 -21 5.5 -33t15.5 -12q32 0 122 153q16 28 25 43q3 5 8 16q10 23 27 23q10 0 26.5 -14.5t16.5 -24.5q0 -20 -46.5 -105t-103.5 -143q-20 -20 -41 -30.5t-43 -10.5q-51 0 -79.5 42t-28.5 118q0 35 7.5 89t23.5 128q-52 -85 -119 -213q-82 -155 -123 -155q-38 0 -62 23.5 t-24 64.5zM74 770q0 47 40.5 88t94.5 41q11 0 24 -3t25 -9l61 -35q11 -6 22 -9t21 -3q25 0 43 26.5t29 26.5h45q4 0 6 -1t2 -5v-4q0 -48 -36 -85.5t-83 -37.5q-13 0 -26 3t-31 11l-65 31q-12 5 -24 7.5t-21 2.5q-31 0 -48.5 -25.5t-25.5 -25.5h-45q-3 0 -5.5 2t-2.5 4z" />
<glyph unicode="&#xf2;" horiz-adv-x="473" d="M-86 109q0 67 33 161.5t88 180.5q31 49 61.5 73.5t61.5 24.5q20 0 35.5 -9t24.5 -26l4 1q19 3 32 3q43 0 70 -44t28 -117q53 16 97 71t57 55q15 0 24 -7.5t9 -20.5q0 -16 -9 -32t-28 -36q-37 -54 -78 -85.5t-86 -39.5q-44 -156 -114 -237.5t-161 -81.5q-68 0 -108.5 44.5 t-40.5 121.5zM33 98q0 -32 10.5 -47.5t32.5 -15.5q53 0 114.5 117t61.5 225q0 27 -10 42t-27 15q-50 0 -116 -115.5t-66 -220.5zM93 942q0 7 3.5 9.5t14.5 2.5h94q9 0 16 -6.5t11 -20.5l2 -7q14 -48 34 -94t38 -72l6 -7q2 -3 3 -6t1 -6q0 -4 -4 -6t-13 -2h-43 q-9 0 -18.5 5.5t-15.5 15.5l-4 7q-6 9 -50 67.5t-67 101.5l-6 10q-2 4 -2 8z" />
<glyph unicode="&#xf3;" horiz-adv-x="473" d="M-86 109q0 67 33 161.5t88 180.5q31 49 61.5 73.5t61.5 24.5q20 0 35.5 -9t24.5 -26l4 1q19 3 32 3q43 0 70 -44t28 -117q53 16 97 71t57 55q15 0 24 -7.5t9 -20.5q0 -16 -9 -32t-28 -36q-37 -54 -78 -85.5t-86 -39.5q-44 -156 -114 -237.5t-161 -81.5q-68 0 -108.5 44.5 t-40.5 121.5zM33 98q0 -32 10.5 -47.5t32.5 -15.5q53 0 114.5 117t61.5 225q0 27 -10 42t-27 15q-50 0 -116 -115.5t-66 -220.5zM136 739q0 2 3 5t5 6l6 8q18 18 51.5 66t59.5 98l4 8q6 13 14.5 18.5t19.5 5.5h99q9 0 13.5 -3t4.5 -9q0 -3 -1.5 -6t-4.5 -6l-8 -10 q-39 -48 -85 -97t-71 -69l-8 -9q-11 -9 -21 -13.5t-20 -4.5h-45q-9 0 -12.5 3t-3.5 9z" />
<glyph unicode="&#xf4;" horiz-adv-x="473" d="M-86 109q0 67 33 161.5t88 180.5q31 49 61.5 73.5t61.5 24.5q20 0 35.5 -9t24.5 -26l4 1q19 3 32 3q43 0 70 -44t28 -117q53 16 97 71t57 55q15 0 24 -7.5t9 -20.5q0 -16 -9 -32t-28 -36q-37 -54 -78 -85.5t-86 -39.5q-44 -156 -114 -237.5t-161 -81.5q-68 0 -108.5 44.5 t-40.5 121.5zM33 98q0 -32 10.5 -47.5t32.5 -15.5q53 0 114.5 117t61.5 225q0 27 -10 42t-27 15q-50 0 -116 -115.5t-66 -220.5zM48 795q0 3 2.5 8t7.5 8l4 4q12 8 46.5 43.5t66.5 75.5l2 7q5 7 11.5 11t14.5 4h10h91q10 0 18 -4.5t20 -21.5l5 -4q20 -31 40.5 -68.5 t28.5 -58.5l4 -6q3 -6 4.5 -12t1.5 -11t-2 -7.5t-10 -6.5l-43 -21q-1 0 -4 -1q-8 -3 -10 -3q-12 1 -22 21l-1 2l-2 6q-1 2 -5 9q-38 72 -73 118q-48 -54 -84 -91.5t-45 -43.5l-3 -2q-3 -2 -9 -8.5t-10 -6.5q-5 0 -7.5 1t-7.5 5l-34 39q-3 3 -4.5 6.5t-1.5 8.5z" />
<glyph unicode="&#xf5;" horiz-adv-x="473" d="M-86 109q0 67 33 161.5t88 180.5q31 49 61.5 73.5t61.5 24.5q20 0 35.5 -9t24.5 -26l4 1q19 3 32 3q43 0 70 -44t28 -117q53 16 97 71t57 55q15 0 24 -7.5t9 -20.5q0 -16 -9 -32t-28 -36q-37 -54 -78 -85.5t-86 -39.5q-44 -156 -114 -237.5t-161 -81.5q-68 0 -108.5 44.5 t-40.5 121.5zM33 98q0 -32 10.5 -47.5t32.5 -15.5q53 0 114.5 117t61.5 225q0 27 -10 42t-27 15q-50 0 -116 -115.5t-66 -220.5zM48 770q0 47 40.5 88t94.5 41q11 0 24 -3t25 -9l61 -35q11 -6 22 -9t21 -3q25 0 43 26.5t29 26.5h45q4 0 6 -1t2 -5v-4q0 -48 -36 -85.5 t-83 -37.5q-13 0 -26 3t-31 11l-65 31q-12 5 -24 7.5t-21 2.5q-31 0 -48.5 -25.5t-25.5 -25.5h-45q-3 0 -5.5 2t-2.5 4z" />
<glyph unicode="&#xf6;" horiz-adv-x="473" d="M-86 109q0 67 33 161.5t88 180.5q31 49 61.5 73.5t61.5 24.5q20 0 35.5 -9t24.5 -26l4 1q19 3 32 3q43 0 70 -44t28 -117q53 16 97 71t57 55q15 0 24 -7.5t9 -20.5q0 -16 -9 -32t-28 -36q-37 -54 -78 -85.5t-86 -39.5q-44 -156 -114 -237.5t-161 -81.5q-68 0 -108.5 44.5 t-40.5 121.5zM33 98q0 -32 10.5 -47.5t32.5 -15.5q53 0 114.5 117t61.5 225q0 27 -10 42t-27 15q-50 0 -116 -115.5t-66 -220.5zM68 797q0 41 28 73.5t62 32.5q25 0 38 -14.5t13 -40.5q0 -42 -27.5 -74.5t-64.5 -32.5q-21 0 -35 16t-14 40zM289 797q0 41 28 73.5t62 32.5 q25 0 39.5 -14.5t14.5 -40.5q0 -42 -29 -74.5t-66 -32.5q-20 0 -34.5 16t-14.5 40z" />
<glyph unicode="&#xf7;" horiz-adv-x="1706" d="M254 553v117h1198v-117h-1198zM739 250q0 48 34 81.5t81 33.5t81 -34t34 -81t-33.5 -81t-81.5 -34t-81.5 33.5t-33.5 81.5zM739 971q0 47 34 80.5t81 33.5q48 0 81.5 -33.5t33.5 -80.5q0 -48 -33.5 -81.5t-81.5 -33.5q-49 0 -82 33.5t-33 81.5z" />
<glyph unicode="&#xf8;" horiz-adv-x="473" d="M-96 -176q0 16 13 45.5t54 99.5q-30 26 -43.5 59t-13.5 81q0 65 33 160t88 182q31 49 61.5 73.5t61.5 24.5q20 0 35.5 -9t23.5 -26q4 1 9.5 2.5t6.5 1.5q3 0 7 -1t6 -1q14 26 35 67q38 74 65 74q14 0 24.5 -10t10.5 -22q0 -19 -16 -52.5t-50 -85.5q20 -26 28.5 -57.5 t8.5 -73.5q53 17 97 72t57 55q15 0 24 -7.5t9 -20.5q0 -16 -9 -32t-28 -36q-37 -54 -78 -85.5t-86 -39.5q-44 -157 -114 -238t-161 -81q-1 0 -9.5 1.5t-16.5 2.5q-43 -106 -61 -133t-37 -27q-16 0 -25.5 10t-9.5 27zM33 98q0 -32 10.5 -47.5t32.5 -15.5q53 0 114.5 117 t61.5 225q0 27 -10 42t-27 15q-50 0 -116 -115.5t-66 -220.5z" />
<glyph unicode="&#xf9;" horiz-adv-x="559" d="M-61 119q0 86 35.5 212t93.5 234q12 24 26.5 34.5t32.5 10.5q28 0 48 -20.5t20 -46.5q0 -7 -4 -15t-13 -18q-62 -128 -96.5 -233t-34.5 -162q0 -30 8 -43t27 -13q40 0 98.5 110.5t145.5 348.5q4 37 22 58.5t45 21.5t51.5 -21t24.5 -45q0 -6 -22 -51q-107 -219 -107 -377 q0 -25 5 -40t13 -15q32 0 69.5 51t84.5 158q2 5 5 12q13 31 30 31q10 0 27.5 -14.5t17.5 -24.5q0 -14 -32.5 -82t-74.5 -125q-33 -46 -66 -67t-73 -21q-50 0 -81.5 40t-31.5 106q0 7 2 23t5 36q-46 -94 -92 -141t-91 -47q-24 0 -43 9t-37 30q-21 21 -29.5 43t-8.5 53z M172 942q0 7 3.5 9.5t14.5 2.5h94q9 0 16 -6.5t11 -20.5l2 -7q14 -48 34 -94t38 -72l6 -7q2 -3 3 -6t1 -6q0 -4 -4 -6t-13 -2h-43q-9 0 -18.5 5.5t-15.5 15.5l-4 7q-6 9 -50 67.5t-67 101.5l-6 10q-2 4 -2 8z" />
<glyph unicode="&#xfa;" horiz-adv-x="559" d="M-61 119q0 86 35.5 212t93.5 234q12 24 26.5 34.5t32.5 10.5q28 0 48 -20.5t20 -46.5q0 -7 -4 -15t-13 -18q-62 -128 -96.5 -233t-34.5 -162q0 -30 8 -43t27 -13q40 0 98.5 110.5t145.5 348.5q4 37 22 58.5t45 21.5t51.5 -21t24.5 -45q0 -6 -22 -51q-107 -219 -107 -377 q0 -25 5 -40t13 -15q32 0 69.5 51t84.5 158q2 5 5 12q13 31 30 31q10 0 27.5 -14.5t17.5 -24.5q0 -14 -32.5 -82t-74.5 -125q-33 -46 -66 -67t-73 -21q-50 0 -81.5 40t-31.5 106q0 7 2 23t5 36q-46 -94 -92 -141t-91 -47q-24 0 -43 9t-37 30q-21 21 -29.5 43t-8.5 53z M215 739q0 2 3 5t5 6l6 8q18 18 51.5 66t59.5 98l4 8q6 13 14.5 18.5t19.5 5.5h99q9 0 13.5 -3t4.5 -9q0 -3 -1.5 -6t-4.5 -6l-8 -10q-39 -48 -85 -97t-71 -69l-8 -9q-11 -9 -21 -13.5t-20 -4.5h-45q-9 0 -12.5 3t-3.5 9z" />
<glyph unicode="&#xfb;" horiz-adv-x="559" d="M-61 119q0 86 35.5 212t93.5 234q12 24 26.5 34.5t32.5 10.5q28 0 48 -20.5t20 -46.5q0 -7 -4 -15t-13 -18q-62 -128 -96.5 -233t-34.5 -162q0 -30 8 -43t27 -13q40 0 98.5 110.5t145.5 348.5q4 37 22 58.5t45 21.5t51.5 -21t24.5 -45q0 -6 -22 -51q-107 -219 -107 -377 q0 -25 5 -40t13 -15q32 0 69.5 51t84.5 158q2 5 5 12q13 31 30 31q10 0 27.5 -14.5t17.5 -24.5q0 -14 -32.5 -82t-74.5 -125q-33 -46 -66 -67t-73 -21q-50 0 -81.5 40t-31.5 106q0 7 2 23t5 36q-46 -94 -92 -141t-91 -47q-24 0 -43 9t-37 30q-21 21 -29.5 43t-8.5 53z M127 795q0 3 2.5 8t7.5 8l4 4q12 8 46.5 43.5t66.5 75.5l2 7q5 7 11.5 11t14.5 4h10h91q10 0 18 -4.5t20 -21.5l5 -4q20 -31 40.5 -68.5t28.5 -58.5l4 -6q3 -6 4.5 -12t1.5 -11t-2 -7.5t-10 -6.5l-43 -21q-1 0 -4 -1q-8 -3 -10 -3q-12 1 -22 21l-1 2l-2 6q-1 2 -5 9 q-38 72 -73 118q-48 -54 -84 -91.5t-45 -43.5l-3 -2q-3 -2 -9 -8.5t-10 -6.5q-5 0 -7.5 1t-7.5 5l-34 39q-3 3 -4.5 6.5t-1.5 8.5z" />
<glyph unicode="&#xfc;" horiz-adv-x="559" d="M-61 119q0 86 35.5 212t93.5 234q12 24 26.5 34.5t32.5 10.5q28 0 48 -20.5t20 -46.5q0 -7 -4 -15t-13 -18q-62 -128 -96.5 -233t-34.5 -162q0 -30 8 -43t27 -13q40 0 98.5 110.5t145.5 348.5q4 37 22 58.5t45 21.5t51.5 -21t24.5 -45q0 -6 -22 -51q-107 -219 -107 -377 q0 -25 5 -40t13 -15q32 0 69.5 51t84.5 158q2 5 5 12q13 31 30 31q10 0 27.5 -14.5t17.5 -24.5q0 -14 -32.5 -82t-74.5 -125q-33 -46 -66 -67t-73 -21q-50 0 -81.5 40t-31.5 106q0 7 2 23t5 36q-46 -94 -92 -141t-91 -47q-24 0 -43 9t-37 30q-21 21 -29.5 43t-8.5 53z M147 797q0 41 28 73.5t62 32.5q25 0 38 -14.5t13 -40.5q0 -42 -27.5 -74.5t-64.5 -32.5q-21 0 -35 16t-14 40zM368 797q0 41 28 73.5t62 32.5q25 0 39.5 -14.5t14.5 -40.5q0 -42 -29 -74.5t-66 -32.5q-20 0 -34.5 16t-14.5 40z" />
<glyph unicode="&#xfd;" horiz-adv-x="487" d="M-250 -213q0 27 10.5 38t34.5 11q23 0 33 -49q5 -24 8 -36q31 -27 72 -40.5t90 -13.5q10 0 21 0.5t34 3.5q48 24 106 341q15 82 23 128q-35 -69 -75.5 -107t-75.5 -38q-15 0 -25 6t-18 20q-22 17 -32.5 44t-10.5 65q0 145 56.5 287.5t111.5 142.5q25 0 50 -17.5t25 -35.5 q0 -9 -5.5 -15.5t-18.5 -11.5q-51 -104 -81 -205.5t-30 -157.5q0 -9 3.5 -14.5t9.5 -5.5q27 0 103.5 127t127.5 282q4 14 9 42q13 71 71 71q29 0 48 -11.5t24 -31.5q6 -6 9 -13t3 -15q0 -11 -7 -20t-21 -17q-109 -199 -152.5 -460.5t-45.5 -267.5q-23 -84 -107 -142 t-171 -58q-51 0 -88.5 22.5t-77.5 75.5q-21 15 -31 33.5t-10 42.5zM142 739q0 2 3 5t5 6l6 8q18 18 51.5 66t59.5 98l4 8q6 13 14.5 18.5t19.5 5.5h99q9 0 13.5 -3t4.5 -9q0 -3 -1.5 -6t-4.5 -6l-8 -10q-39 -48 -85 -97t-71 -69l-8 -9q-11 -9 -21 -13.5t-20 -4.5h-45 q-9 0 -12.5 3t-3.5 9z" />
<glyph unicode="&#xfe;" horiz-adv-x="502" d="M-195 -438q0 81 70.5 400.5t181.5 672.5q55 174 93 280.5t53 129.5q6 9 20.5 14.5t34.5 5.5q24 0 44 -16t20 -33q0 -4 -14.5 -17.5t-24.5 -31.5q-31 -55 -78.5 -190.5t-95.5 -311.5q52 76 87.5 108.5t65.5 32.5q53 0 87 -51.5t34 -134.5q0 -169 -85 -308t-183 -139 q-38 0 -70.5 20t-44.5 50q-43 -188 -67.5 -312t-24.5 -157q0 -13 9 -24t9 -13q0 -16 -13 -27.5t-30 -11.5q-38 0 -58 16t-20 48zM23 120q4 -28 23 -45.5t46 -17.5q41 0 70.5 31.5t66.5 118.5q26 62 39 117.5t13 105.5q0 31 -8 47.5t-23 16.5q-37 0 -107.5 -109t-119.5 -265z " />
<glyph unicode="&#xff;" horiz-adv-x="487" d="M-250 -213q0 27 10.5 38t34.5 11q23 0 33 -49q5 -24 8 -36q31 -27 72 -40.5t90 -13.5q10 0 21 0.5t34 3.5q48 24 106 341q15 82 23 128q-35 -69 -75.5 -107t-75.5 -38q-15 0 -25 6t-18 20q-22 17 -32.5 44t-10.5 65q0 145 56.5 287.5t111.5 142.5q25 0 50 -17.5t25 -35.5 q0 -9 -5.5 -15.5t-18.5 -11.5q-51 -104 -81 -205.5t-30 -157.5q0 -9 3.5 -14.5t9.5 -5.5q27 0 103.5 127t127.5 282q4 14 9 42q13 71 71 71q29 0 48 -11.5t24 -31.5q6 -6 9 -13t3 -15q0 -11 -7 -20t-21 -17q-109 -199 -152.5 -460.5t-45.5 -267.5q-23 -84 -107 -142 t-171 -58q-51 0 -88.5 22.5t-77.5 75.5q-21 15 -31 33.5t-10 42.5zM74 797q0 41 28 73.5t62 32.5q25 0 38 -14.5t13 -40.5q0 -42 -27.5 -74.5t-64.5 -32.5q-21 0 -35 16t-14 40zM295 797q0 41 28 73.5t62 32.5q25 0 39.5 -14.5t14.5 -40.5q0 -42 -29 -74.5t-66 -32.5 q-20 0 -34.5 16t-14.5 40z" />
<glyph unicode="&#x152;" horiz-adv-x="1663" d="M35 350q0 132 55 280t160 294q114 160 240.5 260t203.5 100q33 0 63 -14.5t70 -50.5q85 -13 133.5 -56.5t63.5 -119.5l3 17q37 193 200 193q108 0 269 -20.5t208 -20.5q14 0 23.5 -7t9.5 -17q0 -53 -247 -71q-181 -12 -300 -27q-34 -97 -73.5 -229.5t-88.5 -311.5 q132 14 229.5 20t172.5 6q52 0 76 -10.5t24 -34.5q0 -29 -10.5 -43t-35.5 -16q-81 -4 -199 -17.5t-294 -39.5q-30 -97 -50 -166t-34 -121q216 28 337 40.5t165 12.5q50 0 75 -9.5t25 -29.5q0 -38 -89 -52q-19 -3 -30 -5q-136 -22 -315.5 -68.5t-220.5 -46.5q-37 0 -64.5 31 t-27.5 76q0 16 4 39.5t12 60.5q-60 -103 -150.5 -161t-191.5 -58q-74 0 -163.5 34t-135.5 79q-50 45 -76 116.5t-26 163.5zM176 317q0 -118 57 -183.5t160 -65.5q100 0 197.5 68t175.5 192q78 125 126 287.5t48 299.5q0 112 -41.5 170t-122.5 58q-73 0 -148.5 -45.5 t-154.5 -136.5q-141 -165 -219 -334t-78 -310z" />
<glyph unicode="&#x153;" horiz-adv-x="702" d="M-86 109q0 67 33 161.5t88 180.5q31 49 61.5 73.5t61.5 24.5q20 0 35.5 -9t24.5 -26l4 1q19 3 32 3q16 0 30.5 -7.5t28.5 -23.5q39 93 75.5 136t78.5 43q12 0 26 -5t29 -16q14 -4 37 -10q59 -16 59 -72q0 -125 -71.5 -230.5t-147.5 -105.5q-16 0 -31.5 7.5t-29.5 21.5 q-7 -26 -10.5 -52.5t-3.5 -56.5q0 -56 16 -86t47 -30q55 0 132 70t134 177l13 26q21 42 32 42q10 0 19.5 -11.5t9.5 -27.5q0 -21 -23.5 -67t-62.5 -97q-75 -96 -141 -137t-144 -41q-40 0 -69.5 19t-50.5 59q-51 -59 -87.5 -79.5t-85.5 -20.5q-68 0 -108.5 44.5t-40.5 121.5z M33 98q0 -32 10.5 -47.5t32.5 -15.5q53 0 114.5 117t61.5 225q0 27 -10 42t-27 15q-50 0 -116 -115.5t-66 -220.5zM371 352q0 -28 10.5 -44.5t28.5 -16.5q33 0 65.5 73t32.5 144q0 12 -7.5 21.5t-17.5 9.5q-28 0 -70 -71.5t-42 -115.5z" />
<glyph unicode="&#x178;" horiz-adv-x="807" d="M180 72q0 39 35 170.5t92 294.5q-50 212 -78 376.5t-28 247.5q0 39 20 59.5t60 20.5q72 0 95 -268q18 -201 38 -338q204 315 358.5 506.5t200.5 191.5q22 0 36.5 -18t14.5 -41q0 -11 -122 -162t-224 -289q-15 -19 -45 -58q-134 -172 -191 -323q-53 -142 -95 -322 q-34 -143 -79 -143q-36 0 -62 27.5t-26 67.5zM481 1461q0 41 28 73.5t62 32.5q25 0 38 -14.5t13 -40.5q0 -42 -27.5 -74.5t-64.5 -32.5q-21 0 -35 16t-14 40zM702 1461q0 41 28 73.5t62 32.5q25 0 39.5 -14.5t14.5 -40.5q0 -42 -29 -74.5t-66 -32.5q-20 0 -34.5 16t-14.5 40 z" />
<glyph unicode="&#x2c6;" d="M322 795q0 3 2.5 8t7.5 8l4 4q12 8 46.5 43.5t66.5 75.5l2 7q5 7 11.5 11t14.5 4h10h91q10 0 18 -4.5t20 -21.5l5 -4q20 -31 40.5 -68.5t28.5 -58.5l4 -6q3 -6 4.5 -12t1.5 -11t-2 -7.5t-10 -6.5l-43 -21q-1 0 -4 -1q-8 -3 -10 -3q-12 1 -22 21l-1 2l-2 6q-1 2 -5 9 q-38 72 -73 118q-48 -54 -84 -91.5t-45 -43.5l-3 -2q-3 -2 -9 -8.5t-10 -6.5q-5 0 -7.5 1t-7.5 5l-34 39q-3 3 -4.5 6.5t-1.5 8.5z" />
<glyph unicode="&#x2dc;" d="M322 770q0 47 40.5 88t94.5 41q11 0 24 -3t25 -9l61 -35q11 -6 22 -9t21 -3q25 0 43 26.5t29 26.5h45q4 0 6 -1t2 -5v-4q0 -48 -36 -85.5t-83 -37.5q-13 0 -26 3t-31 11l-65 31q-12 5 -24 7.5t-21 2.5q-31 0 -48.5 -25.5t-25.5 -25.5h-45q-3 0 -5.5 2t-2.5 4z" />
<glyph unicode="&#x2000;" horiz-adv-x="817" />
<glyph unicode="&#x2001;" horiz-adv-x="1634" />
<glyph unicode="&#x2002;" horiz-adv-x="817" />
<glyph unicode="&#x2003;" horiz-adv-x="1634" />
<glyph unicode="&#x2004;" horiz-adv-x="544" />
<glyph unicode="&#x2005;" horiz-adv-x="408" />
<glyph unicode="&#x2006;" horiz-adv-x="272" />
<glyph unicode="&#x2007;" horiz-adv-x="272" />
<glyph unicode="&#x2008;" horiz-adv-x="204" />
<glyph unicode="&#x2009;" horiz-adv-x="326" />
<glyph unicode="&#x200a;" horiz-adv-x="90" />
<glyph unicode="&#x2010;" horiz-adv-x="702" d="M84 332q37 14 118.5 22t184.5 8q92 0 125 -19t33 -67q-1 -19 -8 -26t-27 -10q-101 -12 -198 -18.5t-144 -6.5q-59 0 -71.5 17t-12.5 100z" />
<glyph unicode="&#x2011;" horiz-adv-x="702" d="M84 332q37 14 118.5 22t184.5 8q92 0 125 -19t33 -67q-1 -19 -8 -26t-27 -10q-101 -12 -198 -18.5t-144 -6.5q-59 0 -71.5 17t-12.5 100z" />
<glyph unicode="&#x2012;" horiz-adv-x="702" d="M84 332q37 14 118.5 22t184.5 8q92 0 125 -19t33 -67q-1 -19 -8 -26t-27 -10q-101 -12 -198 -18.5t-144 -6.5q-59 0 -71.5 17t-12.5 100z" />
<glyph unicode="&#x2013;" d="M-109 285q0 28 11 47t30 26q42 -6 101.5 -9t206.5 -3h450q53 0 115 3t69 3q29 0 36.5 -8t7.5 -49v-14q0 -33 -32 -43.5t-161 -10.5h-113h-508h-16q-135 0 -166 11.5t-31 46.5z" />
<glyph unicode="&#x2014;" horiz-adv-x="2048" d="M-102 285q0 28 10.5 47t30.5 26q41 -6 100.5 -9t206.5 -3h1399h77q53 0 114 3t69 3q29 0 36 -8t7 -49v-14q0 -33 -32 -43.5t-161 -10.5h-113h-1548q-135 0 -165.5 11.5t-30.5 46.5z" />
<glyph unicode="&#x2018;" horiz-adv-x="508" d="M297 1004q0 34 22 121t27 132q2 25 13.5 34t37.5 9q21 0 26 -6.5t5 -25.5q0 -142 -25.5 -226t-68.5 -84q-16 0 -26.5 13t-10.5 33z" />
<glyph unicode="&#x2019;" horiz-adv-x="508" d="M307 997q0 18 17 77.5t45 127.5q24 64 39 81t38 17q19 0 30 -11t11 -29q0 -23 -35 -105.5t-52 -129.5l-6 -15q-14 -39 -48 -39q-22 0 -30.5 5.5t-8.5 20.5z" />
<glyph unicode="&#x201a;" horiz-adv-x="508" d="M37 -131q0 20 16.5 79t42.5 126q22 58 39 78t41 20q19 0 30 -11t11 -30q0 -25 -36.5 -109t-53.5 -131q-1 -2 -2 -6q-14 -43 -55 -43q-18 0 -25.5 6t-7.5 21z" />
<glyph unicode="&#x201c;" horiz-adv-x="682" d="M297 1004q0 34 22 121t27 132q2 25 13.5 34t37.5 9q21 0 26 -6.5t5 -25.5q0 -142 -25.5 -226t-68.5 -84q-16 0 -26.5 13t-10.5 33zM469 1004q0 34 22 121t27 132q2 24 14.5 33.5t38.5 9.5q20 0 24.5 -6.5t4.5 -25.5q0 -144 -24.5 -227t-67.5 -83q-16 0 -27.5 13t-11.5 33 z" />
<glyph unicode="&#x201d;" horiz-adv-x="682" d="M307 997q0 18 17 77.5t45 127.5q24 64 39 81t38 17q19 0 30 -11.5t11 -31.5q0 -21 -35 -102t-52 -130l-6 -15q-14 -39 -48 -39q-22 0 -30.5 5.5t-8.5 20.5zM483 997q0 20 16.5 79t43.5 126q23 61 39 79.5t41 18.5q18 0 29.5 -10.5t11.5 -27.5q0 -24 -36.5 -106.5 t-53.5 -130.5q-2 -5 -6 -16q-14 -38 -48 -38q-21 0 -29 5.5t-8 20.5z" />
<glyph unicode="&#x201e;" horiz-adv-x="682" d="M37 -131q0 20 16.5 79t42.5 126q22 58 39 78t41 20q19 0 30 -11.5t11 -31.5q0 -24 -36.5 -106.5t-53.5 -131.5q-1 -2 -2 -6q-14 -43 -55 -43q-18 0 -25.5 6t-7.5 21zM213 -131q0 20 16.5 79t42.5 126q22 58 39 78t41 20q18 0 29.5 -11t11.5 -28q0 -27 -37 -111.5 t-53 -130.5q-1 -2 -2 -6q-14 -43 -55 -43q-18 0 -25.5 6t-7.5 21z" />
<glyph unicode="&#x2022;" horiz-adv-x="1208" d="M307 762q0 123 87 209t210 86q122 0 208.5 -86.5t86.5 -208.5t-87.5 -209.5t-209.5 -87.5q-123 0 -209 87t-86 210z" />
<glyph unicode="&#x2026;" horiz-adv-x="2048" d="M131 43q0 52 41.5 90.5t93.5 38.5q29 0 48.5 -17.5t19.5 -43.5q0 -45 -41.5 -93.5t-71.5 -48.5q-45 0 -67.5 18.5t-22.5 55.5zM813 43q0 52 41.5 90.5t93.5 38.5q29 0 48.5 -17.5t19.5 -43.5q0 -45 -41.5 -93.5t-71.5 -48.5q-45 0 -67.5 18.5t-22.5 55.5zM1497 43 q0 52 41.5 90.5t93.5 38.5q29 0 48.5 -17.5t19.5 -43.5q0 -45 -41.5 -93.5t-71.5 -48.5q-45 0 -67.5 18.5t-22.5 55.5z" />
<glyph unicode="&#x202f;" horiz-adv-x="326" />
<glyph unicode="&#x2039;" horiz-adv-x="408" d="M59 281q0 14 32 55.5t89 101.5q9 10 21 24q17 19 22 19q22 0 47 -10.5t25 -24.5q0 -8 -25 -38t-114 -125q13 -51 37 -100.5t24 -53.5q0 -16 -21 -27.5t-51 -11.5q-13 0 -49.5 75.5t-36.5 115.5z" />
<glyph unicode="&#x203a;" horiz-adv-x="408" d="M33 123q0 18 106 130l33 36q-14 51 -38.5 100.5t-24.5 52.5q0 16 20.5 27.5t50.5 11.5q13 0 50.5 -76.5t37.5 -117.5q0 -11 -33.5 -54t-87.5 -100q-7 -8 -19 -21q-18 -22 -26 -22q-18 0 -43.5 11t-25.5 22z" />
<glyph unicode="&#x205f;" horiz-adv-x="408" />
<glyph unicode="&#x20ac;" horiz-adv-x="1014" d="M37 551q0 16 37.5 23t136.5 10q3 11 21 56q8 19 12 28q8 19 16.5 38.5t15.5 34.5q-37 -1 -60.5 -1.5t-41.5 -0.5q-34 0 -49.5 15t-15.5 47q0 16 47.5 22.5t167.5 8.5q17 32 36.5 65.5t40.5 65.5q91 135 192 227t157 92q31 0 68 -14.5t77 -42.5q78 -22 124 -68t46 -100 q0 -39 -24 -67.5t-54 -28.5q-25 0 -38 20t-21 83q-4 26 -29 43t-59 17q-52 0 -109.5 -34.5t-118.5 -102.5q-33 -37 -62 -75.5t-52 -77.5l22 2h10q140 0 234 -17t102 -47v-6q0 -5 -1.5 -10t-6.5 -15q-37 1 -75 1.5t-113 0.5h-160l-64 -2q-13 -20 -36.5 -71.5t-34.5 -83.5h69 q125 0 203 -16.5t86 -47.5v-6q0 -5 -1.5 -9.5t-7.5 -14.5q-42 1 -68 1.5t-87 0.5h-225q-16 -44 -28.5 -109.5t-12.5 -112.5q0 -100 50 -156.5t136 -56.5q56 0 117.5 21t134.5 65q33 20 86 59.5t74 39.5q8 0 14.5 -8.5t6.5 -20.5q0 -22 -27 -55t-76 -72q-78 -62 -158 -96.5 t-145 -34.5q-165 0 -261.5 86.5t-96.5 232.5q0 57 9.5 120.5t20.5 95.5q-44 -1 -74 -2q-9 -1 -12 -1q-34 0 -49.5 15t-15.5 47z" />
<glyph unicode="&#x2122;" horiz-adv-x="1706" d="M254 1389v67h440v-67h-172v-467h-94v467h-174zM819 922v534h129l160 -405l149 405h132v-534h-82v458l-172 -458h-54l-180 458v-458h-82z" />
<glyph unicode="&#xe000;" horiz-adv-x="635" d="M0 0v635h635v-635h-635z" />
</font>
</defs>
</svg>
